<svg xmlns="http://www.w3.org/2000/svg" viewBox="0 0 1280 800" width="1280" height="800">
  <defs>
    <radialGradient id="bg-glow" cx="85%" cy="15%" r="65%">
      <stop offset="0%" stop-color="#0ea5e9" stop-opacity="0.24"/>
      <stop offset="100%" stop-color="#f8fbff" stop-opacity="0"/>
    </radialGradient>
    <radialGradient id="bg-glow2" cx="15%" cy="85%" r="65%">
      <stop offset="0%" stop-color="#2563eb" stop-opacity="0.18"/>
      <stop offset="100%" stop-color="#f8fbff" stop-opacity="0"/>
    </radialGradient>
    <radialGradient id="bg-glow3" cx="50%" cy="50%" r="50%">
      <stop offset="0%" stop-color="#a78bfa" stop-opacity="0.2"/>
      <stop offset="100%" stop-color="#f8fbff" stop-opacity="0"/>
    </radialGradient>
    <linearGradient id="light-aurora" x1="0%" y1="0%" x2="100%" y2="100%">
      <stop offset="0%" stop-color="#38bdf8" stop-opacity="0.55"/>
      <stop offset="45%" stop-color="#60a5fa" stop-opacity="0.28"/>
      <stop offset="100%" stop-color="#a78bfa" stop-opacity="0.32"/>
    </linearGradient>
    <linearGradient id="light-aurora-2" x1="100%" y1="0%" x2="0%" y2="100%">
      <stop offset="0%" stop-color="#22d3ee" stop-opacity="0.36"/>
      <stop offset="55%" stop-color="#93c5fd" stop-opacity="0.22"/>
      <stop offset="100%" stop-color="#14b8a6" stop-opacity="0.2"/>
    </linearGradient>
    <radialGradient id="light-heart-glow" cx="50%" cy="42%" r="52%">
      <stop offset="0%" stop-color="#ffffff" stop-opacity="0.85"/>
      <stop offset="42%" stop-color="#bae6fd" stop-opacity="0.38"/>
      <stop offset="100%" stop-color="#f8fbff" stop-opacity="0"/>
    </radialGradient>
    <linearGradient id="primary-grad" x1="0%" y1="0%" x2="100%" y2="100%">
      <stop offset="0%" stop-color="#0ea5e9"/>
      <stop offset="100%" stop-color="#2563eb"/>
    </linearGradient>
    <linearGradient id="text-grad" x1="0%" y1="0%" x2="100%" y2="0%">
      <stop offset="0%" stop-color="#1e3a8a"/>
      <stop offset="100%" stop-color="#0f766e"/>
    </linearGradient>
    <linearGradient id="sidebar-grad" x1="0%" y1="0%" x2="100%" y2="0%">
      <stop offset="0%" stop-color="rgba(255, 255, 255, 0.96)"/>
      <stop offset="100%" stop-color="rgba(255, 255, 255, 0.9)"/>
    </linearGradient>
    <filter id="shadow" x="-20%" y="-20%" width="140%" height="140%">
      <feDropShadow dx="0" dy="12" stdDeviation="24" flood-color="#93c5fd" flood-opacity="0.15"/>
    </filter>
    <filter id="shadow-sm" x="-20%" y="-20%" width="140%" height="140%">
      <feDropShadow dx="0" dy="4" stdDeviation="8" flood-color="#93c5fd" flood-opacity="0.1"/>
    </filter>
    <filter id="glow-primary" x="-20%" y="-20%" width="140%" height="140%">
      <feDropShadow dx="0" dy="6" stdDeviation="12" flood-color="#2563eb" flood-opacity="0.45"/>
    </filter>
  </defs>
  <style><![CDATA[
    @import url('https://fonts.googleapis.com/css2?family=Inter:wght@300;400;500;600;700;800&family=JetBrains+Mono:wght@400;500&display=swap');
    * { font-family: 'Inter', sans-serif; }
    .mono { font-family: 'JetBrains Mono', monospace; }
    .bg-base { fill: #f8fbff; }
    .card { fill: rgba(255, 255, 255, 0.9); stroke: #bfdbfe; stroke-width: 1; }
    .glass { fill: url(#sidebar-grad); }
    .text-primary { fill: #0f172a; }
    .text-muted { fill: #475569; }
    .gradient-text { fill: url(#text-grad); }
    .fade-in { animation: fadeIn 0.8s cubic-bezier(0.16, 1, 0.3, 1) forwards; opacity: 0; }
    .delay-1 { animation-delay: 0.1s; }
    .delay-2 { animation-delay: 0.2s; }
    .delay-3 { animation-delay: 0.3s; }
    .pulse { animation: pulse 2.5s infinite ease-in-out; }
    @keyframes fadeIn { to { opacity: 1; transform: translateY(0); } from { opacity: 0; transform: translateY(20px); } }
    @keyframes pulse { 0% { opacity: 1; } 50% { opacity: 0.5; } 100% { opacity: 1; } }
  ]]></style>
  <rect x="0" y="0" width="1280" height="800" class="bg-base"/>
  <rect x="0" y="0" width="1280" height="800" fill="url(#bg-glow)"/>
  <rect x="0" y="0" width="1280" height="800" fill="url(#bg-glow2)"/>
  <rect x="0" y="0" width="1280" height="800" fill="url(#bg-glow3)"/>
  <g id="vivid-light-bg">
    <path d="M-80 210 C 210 30, 430 130, 640 84 S 1050 -10, 1360 118 L 1360 0 L -80 0 Z" fill="url(#light-aurora)" opacity="0.82"/>
    <path d="M-90 675 C 210 475, 395 558, 640 486 S 1030 324, 1370 470 L 1370 800 L -90 800 Z" fill="url(#light-aurora-2)" opacity="0.72"/>
    <ellipse cx="676" cy="330" rx="470" ry="230" fill="url(#light-heart-glow)" opacity="0.9"/>
    <circle cx="116" cy="116" r="3" fill="#2563eb" opacity="0.34"/><circle cx="316" cy="104" r="2.5" fill="#60a5fa" opacity="0.36"/>
    <circle cx="540" cy="78" r="3" fill="#a78bfa" opacity="0.34"/><circle cx="870" cy="86" r="3" fill="#38bdf8" opacity="0.34"/>
    <circle cx="1166" cy="96" r="3" fill="#2563eb" opacity="0.28"/><circle cx="986" cy="610" r="2.5" fill="#38bdf8" opacity="0.36"/>
    <circle cx="438" cy="650" r="2.5" fill="#2563eb" opacity="0.28"/><circle cx="218" cy="588" r="2" fill="#a78bfa" opacity="0.32"/>
    <path d="M78 430 C 260 360, 378 396, 540 330" fill="none" stroke="#38bdf8" stroke-width="2" stroke-opacity="0.12"/>
    <path d="M745 256 C 910 190, 1040 214, 1218 146" fill="none" stroke="#2563eb" stroke-width="2" stroke-opacity="0.12"/>
  </g>
  <rect x="0" y="0" width="260" height="800" class="glass" filter="url(#shadow)"/>
  <line x1="260" y1="0" x2="260" y2="800" stroke="#dbeafe" stroke-width="1"/>
  <svg x="24" y="32" width="32" height="32" viewBox="0 0 24 24"><path d="M12 2l3 7 7 3-7 3-3 7-3-7-7-3 7-3z" fill="url(#primary-grad)"/><circle cx="18" cy="6" r="1.5" fill="#0ea5e9"/><circle cx="6" cy="18" r="1" fill="#2563eb"/></svg>
  <text x="68" y="54" class="gradient-text" font-size="20" font-weight="800">Future</text>
  <g>
      
      <svg x="36" y="108" width="20" height="20" viewBox="0 0 24 24" style="color:#475569"><path d="M3 9l9-7 9 7v11a2 2 0 0 1-2 2H5a2 2 0 0 1-2-2z" fill="none" stroke="currentColor" stroke-width="2" stroke-linecap="round" stroke-linejoin="round"/></svg>
      <text x="68" y="123" class="text-muted" font-size="15" font-weight="600">Projects</text>
    </g><g>
      
      <svg x="36" y="160" width="20" height="20" viewBox="0 0 24 24" style="color:#475569"><path d="M18 8A6 6 0 0 0 6 8c0 7-3 9-3 9h18s-3-2-3-9 M13.73 21a2 2 0 0 1-3.46 0" fill="none" stroke="currentColor" stroke-width="2" stroke-linecap="round" stroke-linejoin="round"/></svg>
      <text x="68" y="175" class="text-muted" font-size="15" font-weight="600">Notifications</text>
    </g><g>
      <rect x="16" y="200" width="228" height="44" fill="#eff6ff" rx="12"/>
      <rect x="16" y="208" width="4" height="28" fill="#2563eb" rx="2" filter="url(#glow-primary)"/>
      <svg x="36" y="212" width="20" height="20" viewBox="0 0 24 24" style="color:#0f766e"><path d="M12 2l7 4v5c0 5-3.5 9.5-7 11-3.5-1.5-7-6-7-11V6l7-4z" fill="none" stroke="currentColor" stroke-width="2" stroke-linejoin="round"/><path d="M9 12l2 2 4-5" fill="none" stroke="currentColor" stroke-width="2" stroke-linecap="round" stroke-linejoin="round"/></svg>
      <text x="68" y="227" class="text-primary" font-size="15" font-weight="700">Admin Console</text>
    </g>
  <line x1="24" y1="716" x2="236" y2="716" stroke="#dbeafe" stroke-width="1"/>
  <rect x="24" y="732" width="40" height="40" fill="url(#primary-grad)" rx="20"/>
  <text x="44" y="757" fill="#ffffff" font-size="15" font-weight="700" text-anchor="middle">AD</text>
  <text x="76" y="750" class="text-primary" font-size="13" font-weight="700">admin@co.com</text>
  <text x="76" y="768" class="text-muted" font-size="12">Platform Admin</text>
  <rect x="260" y="0" width="1020" height="72" fill="rgba(248, 251, 255, 0.82)"/>
  <line x1="260" y1="72" x2="1280" y2="72" stroke="#dbeafe" stroke-width="1"/>
  <text x="290" y="42" class="text-muted" font-size="14" font-weight="600">Admin Console / Queue</text>
  <rect x="980" y="22" width="128" height="28" fill="#ecfdf5" stroke="#34d399" rx="14"/>
  <circle cx="996" cy="36" r="4" class="pulse" fill="#059669"/>
  <text x="1010" y="40" font-size="11" font-weight="800" fill="#059669">CONNECTED</text>
  <svg x="1140" y="24" width="24" height="24" viewBox="0 0 24 24" style="color:#475569"><path d="M18 8A6 6 0 0 0 6 8c0 7-3 9-3 9h18s-3-2-3-9 M13.73 21a2 2 0 0 1-3.46 0" fill="none" stroke="currentColor" stroke-width="2" stroke-linecap="round" stroke-linejoin="round"/></svg>
  <circle cx="1158" cy="26" r="4" fill="#e11d48"/>
  <text x="290" y="130" class="gradient-text fade-in" font-size="32" font-weight="800">Admin Queue</text>
  <text x="290" y="155" class="text-muted fade-in delay-1" font-size="16">Global capacity, FIFO order, and controlled cancellation for training jobs.</text>
  <rect x="1060" y="105" width="180" height="44" fill="url(#primary-grad)" rx="8" filter="url(#glow-primary)"/>
  <text x="1150" y="132" fill="#ffffff" font-size="14" font-weight="700" text-anchor="middle">Pause Intake</text><g class="fade-in delay-2">
    <rect x="290" y="184" width="224" height="106" class="card" rx="8" filter="url(#shadow-sm)"/>
    <text x="310" y="218" class="text-muted" font-size="12" font-weight="800">SERVER CAPACITY</text>
    <text x="310" y="250" fill="#0ea5e9" font-size="30" font-weight="800">1 / 1</text>
    <text x="310" y="272" class="text-muted" font-size="12">Single training worker active</text>
  </g><g class="fade-in delay-2">
    <rect x="534" y="184" width="224" height="106" class="card" rx="8" filter="url(#shadow-sm)"/>
    <text x="554" y="218" class="text-muted" font-size="12" font-weight="800">QUEUE DEPTH</text>
    <text x="554" y="250" fill="#b45309" font-size="30" font-weight="800">2</text>
    <text x="554" y="272" class="text-muted" font-size="12">FIFO jobs waiting</text>
  </g><g class="fade-in delay-2">
    <rect x="778" y="184" width="224" height="106" class="card" rx="8" filter="url(#shadow-sm)"/>
    <text x="798" y="218" class="text-muted" font-size="12" font-weight="800">AVG WAIT</text>
    <text x="798" y="250" fill="#2563eb" font-size="30" font-weight="800">18m</text>
    <text x="798" y="272" class="text-muted" font-size="12">Current estimate</text>
  </g><g class="fade-in delay-2">
    <rect x="1022" y="184" width="218" height="106" class="card" rx="8" filter="url(#shadow-sm)"/>
    <text x="1042" y="218" class="text-muted" font-size="12" font-weight="800">FAILURES TODAY</text>
    <text x="1042" y="250" fill="#e11d48" font-size="30" font-weight="800">1</text>
    <text x="1042" y="272" class="text-muted" font-size="12">Needs admin review</text>
  </g><rect x="290" y="322" width="950" height="290" class="card" rx="8" filter="url(#shadow-sm)"/>
  <rect x="290" y="322" width="950" height="44" fill="rgba(239, 246, 255, 0.9)" rx="8"/>
  <line x1="290" y1="366" x2="1240" y2="366" stroke="#dbeafe"/><text x="310" y="350" class="text-muted" font-size="11" font-weight="800">JOB</text><text x="414" y="350" class="text-muted" font-size="11" font-weight="800">PROJECT</text><text x="628" y="350" class="text-muted" font-size="11" font-weight="800">STATUS</text><text x="778" y="350" class="text-muted" font-size="11" font-weight="800">OWNER</text><text x="972" y="350" class="text-muted" font-size="11" font-weight="800">AGE / POSITION</text><text x="1122" y="350" class="text-muted" font-size="11" font-weight="800">ACTION</text><line x1="290" y1="414" x2="1240" y2="414" stroke="#dbeafe"/><text x="310" y="396" class="text-primary" font-size="13" font-weight="800">#10482</text><text x="414" y="396" class="text-primary" font-size="13" font-weight="800">Vision Quality</text><rect x="628" y="378" width="88" height="24" fill="#0ea5e922" stroke="#0ea5e9" stroke-opacity="0.35" rx="12"/>
  <text x="672" y="394" fill="#0ea5e9" font-size="11" font-weight="800" text-anchor="middle">RUNNING</text><text x="778" y="396" class="text-primary" font-size="13" font-weight="800">admin@co.com</text><text x="972" y="396" class="text-primary" font-size="13" font-weight="800">00:42:18</text><text x="1122" y="396" class="text-muted" font-size="13" font-weight="600">Cancel</text><line x1="290" y1="462" x2="1240" y2="462" stroke="#dbeafe"/><text x="310" y="444" class="text-primary" font-size="13" font-weight="800">#10483</text><text x="414" y="444" class="text-primary" font-size="13" font-weight="800">Recommendation Engine</text><rect x="628" y="426" width="88" height="24" fill="#b4530922" stroke="#b45309" stroke-opacity="0.35" rx="12"/>
  <text x="672" y="442" fill="#b45309" font-size="11" font-weight="800" text-anchor="middle">PENDING</text><text x="778" y="444" class="text-primary" font-size="13" font-weight="800">engineer@co.com</text><text x="972" y="444" class="text-primary" font-size="13" font-weight="800">pos 1</text><text x="1122" y="444" class="text-muted" font-size="13" font-weight="600">Cancel</text><line x1="290" y1="510" x2="1240" y2="510" stroke="#dbeafe"/><text x="310" y="492" class="text-primary" font-size="13" font-weight="800">#10484</text><text x="414" y="492" class="text-primary" font-size="13" font-weight="800">Fraud Detection</text><rect x="628" y="474" width="88" height="24" fill="#b4530922" stroke="#b45309" stroke-opacity="0.35" rx="12"/>
  <text x="672" y="490" fill="#b45309" font-size="11" font-weight="800" text-anchor="middle">PENDING</text><text x="778" y="492" class="text-primary" font-size="13" font-weight="800">owner@co.com</text><text x="972" y="492" class="text-primary" font-size="13" font-weight="800">pos 2</text><text x="1122" y="492" class="text-muted" font-size="13" font-weight="600">Cancel</text><line x1="290" y1="558" x2="1240" y2="558" stroke="#dbeafe"/><text x="310" y="540" class="text-primary" font-size="13" font-weight="800">#10479</text><text x="414" y="540" class="text-primary" font-size="13" font-weight="800">Churn Prediction</text><rect x="628" y="522" width="88" height="24" fill="#e11d4822" stroke="#e11d48" stroke-opacity="0.35" rx="12"/>
  <text x="672" y="538" fill="#e11d48" font-size="11" font-weight="800" text-anchor="middle">FAILED</text><text x="778" y="540" class="text-primary" font-size="13" font-weight="800">engineer@co.com</text><text x="972" y="540" class="text-primary" font-size="13" font-weight="800">00:13:04</text><text x="1122" y="540" class="text-muted" font-size="13" font-weight="600">Inspect</text><line x1="290" y1="606" x2="1240" y2="606" stroke="#dbeafe"/><text x="310" y="588" class="text-primary" font-size="13" font-weight="800">#10476</text><text x="414" y="588" class="text-primary" font-size="13" font-weight="800">Image Classifier</text><rect x="628" y="570" width="88" height="24" fill="#05966922" stroke="#059669" stroke-opacity="0.35" rx="12"/>
  <text x="672" y="586" fill="#059669" font-size="11" font-weight="800" text-anchor="middle">SUCCESS</text><text x="778" y="588" class="text-primary" font-size="13" font-weight="800">owner@co.com</text><text x="972" y="588" class="text-primary" font-size="13" font-weight="800">01:11:52</text><text x="1122" y="588" class="text-muted" font-size="13" font-weight="600">Open</text>
</svg>
