<svg xmlns="http://www.w3.org/2000/svg" viewBox="0 0 1280 800" width="1280" height="800">

        <defs>
            <radialGradient id="bg-glow" cx="85%" cy="15%" r="65%">
                <stop offset="0%" stop-color="#dbeafe" stop-opacity="1"/>
                <stop offset="100%" stop-color="#f8fbff" stop-opacity="0"/>
            </radialGradient>
            <radialGradient id="bg-glow2" cx="15%" cy="85%" r="65%">
                <stop offset="0%" stop-color="#e0f2fe" stop-opacity="0.8"/>
                <stop offset="100%" stop-color="#f8fbff" stop-opacity="0"/>
            </radialGradient>
            <radialGradient id="bg-glow3" cx="50%" cy="50%" r="50%">
                <stop offset="0%" stop-color="#eef2ff" stop-opacity="1"/>
                <stop offset="100%" stop-color="#f8fbff" stop-opacity="0"/>
            </radialGradient>
            <linearGradient id="light-aurora" x1="0%" y1="0%" x2="100%" y2="100%">
                <stop offset="0%" stop-color="#38bdf8" stop-opacity="0.55"/>
                <stop offset="45%" stop-color="#60a5fa" stop-opacity="0.28"/>
                <stop offset="100%" stop-color="#a78bfa" stop-opacity="0.32"/>
            </linearGradient>
            <linearGradient id="light-aurora-2" x1="100%" y1="0%" x2="0%" y2="100%">
                <stop offset="0%" stop-color="#22d3ee" stop-opacity="0.36"/>
                <stop offset="55%" stop-color="#93c5fd" stop-opacity="0.22"/>
                <stop offset="100%" stop-color="#14b8a6" stop-opacity="0.2"/>
            </linearGradient>
            <radialGradient id="light-heart-glow" cx="50%" cy="42%" r="52%">
                <stop offset="0%" stop-color="#ffffff" stop-opacity="0.85"/>
                <stop offset="42%" stop-color="#bae6fd" stop-opacity="0.38"/>
                <stop offset="100%" stop-color="#f8fbff" stop-opacity="0"/>
            </radialGradient>
            <linearGradient id="primary-grad" x1="0%" y1="0%" x2="100%" y2="100%">
                <stop offset="0%" stop-color="#0ea5e9"/>
                <stop offset="100%" stop-color="#2563eb"/>
            </linearGradient>
            
            <linearGradient id="text-grad" x1="0%" y1="0%" x2="100%" y2="0%">
                <stop offset="0%" stop-color="#1e3a8a"/>
                <stop offset="100%" stop-color="#0f766e"/>
            </linearGradient>
            
            <linearGradient id="sidebar-grad" x1="0%" y1="0%" x2="100%" y2="0%">
                <stop offset="0%" stop-color="rgba(255, 255, 255, 0.96)"/>
                <stop offset="100%" stop-color="rgba(255, 255, 255, 0.9)"/>
            </linearGradient>
            
            <filter id="shadow" x="-20%" y="-20%" width="140%" height="140%">
                <feDropShadow dx="0" dy="12" stdDeviation="24" flood-color="#93c5fd" flood-opacity="0.15"/>
            </filter>
            <filter id="shadow-sm" x="-20%" y="-20%" width="140%" height="140%">
                <feDropShadow dx="0" dy="4" stdDeviation="8" flood-color="#93c5fd" flood-opacity="0.1"/>
            </filter>
            
            <filter id="glow-primary" x="-20%" y="-20%" width="140%" height="140%">
                <feDropShadow dx="0" dy="6" stdDeviation="12" flood-color="#2563eb" flood-opacity="0.4"/>
            </filter>
            <filter id="glow-success" x="-20%" y="-20%" width="140%" height="140%">
                <feDropShadow dx="0" dy="4" stdDeviation="8" flood-color="#34d399" flood-opacity="0.4"/>
            </filter>
            
            <filter id="blur" x="-20%" y="-20%" width="140%" height="140%">
                <feGaussianBlur stdDeviation="16"/>
            </filter>
        </defs>
        <style><![CDATA[

        @import url('https://fonts.googleapis.com/css2?family=Inter:wght@300;400;500;600;700;800&family=JetBrains+Mono:wght@400;500&display=swap');
        * { font-family: 'Inter', sans-serif; }
        .mono { font-family: 'JetBrains Mono', monospace; }
        
        .bg-base { fill: #f8fbff; }
        .card { fill: rgba(255, 255, 255, 0.9); stroke: rgba(191, 219, 254, 0.9); stroke-width: 1; backdrop-filter: blur(12px); }
        .card:hover { stroke: rgba(56, 189, 248, 0.55); transition: stroke 0.3s ease; }
        .glass { fill: url(#sidebar-grad); }
        
        .text-primary { fill: #0f172a; }
        .text-muted { fill: #475569; }
        .gradient-text { fill: url(#text-grad); }
        
        .pulse { animation: pulse 2.5s infinite ease-in-out; }
        @keyframes pulse { 0% { opacity: 1; } 50% { opacity: 0.5; } 100% { opacity: 1; } }
        .spin { animation: spin 2s linear infinite; transform-origin: center; }
        @keyframes spin { 100% { transform: rotate(360deg); } }
        .fade-in { animation: fadeIn 0.8s cubic-bezier(0.16, 1, 0.3, 1) forwards; opacity: 0; }
        .delay-1 { animation-delay: 0.1s; }
        .delay-2 { animation-delay: 0.2s; }
        .delay-3 { animation-delay: 0.3s; }
        @keyframes fadeIn { to { opacity: 1; transform: translateY(0); } from { opacity: 0; transform: translateY(20px); } }
        
        .btn-primary { fill: url(#primary-grad); filter: url(#glow-primary); transition: filter 0.3s; cursor: pointer; }
        .btn-primary:hover { filter: brightness(1.1) url(#glow-primary); }
        .btn-primary-text { fill: #ffffff; }
        
        .btn-secondary { fill: #ffffff; stroke: #bfdbfe; cursor: pointer; transition: all 0.2s; }
        .btn-secondary:hover { fill: #eff6ff; stroke: #93c5fd; }
        .btn-secondary-text { fill: #334155; }
        
        .btn-danger { fill: #fee2e2; stroke: #f87171; }
        .btn-danger-text { fill: #b91c1c; }
        
]]></style>
<rect x="0" y="0" width="1280" height="800" class="bg-base"   rx="0"  />
<rect x="0" y="0" width="1280" height="800" class="" fill="url(#bg-glow)"  rx="0"  />
<rect x="0" y="0" width="1280" height="800" class="" fill="url(#bg-glow2)"  rx="0"  />
<rect x="0" y="0" width="1280" height="800" class="" fill="url(#bg-glow3)"  rx="0"  />
<g id="vivid-light-bg">
<path d="M-80 210 C 210 30, 430 130, 640 84 S 1050 -10, 1360 118 L 1360 0 L -80 0 Z" fill="url(#light-aurora)" opacity="0.82"/>
<path d="M-90 675 C 210 475, 395 558, 640 486 S 1030 324, 1370 470 L 1370 800 L -90 800 Z" fill="url(#light-aurora-2)" opacity="0.72"/>
<ellipse cx="676" cy="330" rx="470" ry="230" fill="url(#light-heart-glow)" opacity="0.9"/>
<circle cx="116" cy="116" r="3" fill="#2563eb" opacity="0.34"/>
<circle cx="180" cy="268" r="2" fill="#38bdf8" opacity="0.42"/>
<circle cx="316" cy="104" r="2.5" fill="#60a5fa" opacity="0.36"/>
<circle cx="462" cy="188" r="2" fill="#14b8a6" opacity="0.36"/>
<circle cx="540" cy="78" r="3" fill="#a78bfa" opacity="0.34"/>
<circle cx="724" cy="142" r="2" fill="#0ea5e9" opacity="0.34"/>
<circle cx="870" cy="86" r="3" fill="#38bdf8" opacity="0.34"/>
<circle cx="1010" cy="194" r="2.5" fill="#60a5fa" opacity="0.38"/>
<circle cx="1166" cy="96" r="3" fill="#2563eb" opacity="0.28"/>
<circle cx="1120" cy="382" r="2" fill="#14b8a6" opacity="0.32"/>
<circle cx="986" cy="610" r="2.5" fill="#38bdf8" opacity="0.36"/>
<circle cx="760" cy="704" r="2" fill="#60a5fa" opacity="0.34"/>
<circle cx="438" cy="650" r="2.5" fill="#2563eb" opacity="0.28"/>
<circle cx="218" cy="588" r="2" fill="#a78bfa" opacity="0.32"/>
<path d="M78 430 C 260 360, 378 396, 540 330" fill="none" stroke="#38bdf8" stroke-width="2" stroke-opacity="0.12"/>
<path d="M745 256 C 910 190, 1040 214, 1218 146" fill="none" stroke="#2563eb" stroke-width="2" stroke-opacity="0.12"/>
</g>
<rect x="420" y="140" width="440" height="520" class="fade-in" fill="rgba(255, 255, 255, 0.9)" stroke="rgba(191, 219, 254, 0.9)" rx="24" filter="url(#shadow)" style="backdrop-filter: blur(16px);" />
<g class="fade-in delay-1">
<rect x="612.0" y="180" width="56" height="56" class="" fill="#eff6ff" stroke="#bfdbfe" rx="16"  />
<svg x="624.0" y="192" width="32" height="32" viewBox="0 0 24 24"><path d="M12 2l3 7 7 3-7 3-3 7-3-7-7-3 7-3z" fill="url(#primary-grad)" stroke="none"/><circle cx="18" cy="6" r="1.5" fill="#0ea5e9"/><circle cx="6" cy="18" r="1" fill="#2563eb"/></svg>
<text x="640.0" y="270" class="text-primary" font-size="28" font-weight="800" text-anchor="middle"  >Welcome Home</text>
<text x="640.0" y="295" class="text-muted" font-size="15" font-weight="normal" text-anchor="middle"  >A calm place to care for training work</text>
</g>
<g class="fade-in delay-2">
<g class="">
<rect x="460" y="330" width="360" height="48" class="btn-secondary"   rx="12"  />
<text x="640.0" y="359.0" class="btn-secondary-text" font-size="14" font-weight="600" text-anchor="middle"  >Continue with Company SSO</text>
</g>
<line x1="460" y1="410" x2="600" y2="410" stroke="#dbeafe" stroke-width="1"  />
<text x="640.0" y="415" class="text-muted" font-size="13" font-weight="700" text-anchor="middle"  >OR</text>
<line x1="680" y1="410" x2="820" y2="410" stroke="#dbeafe" stroke-width="1"  />
<g class="">
<text x="460" y="452" class="text-muted" font-size="13" font-weight="600" text-anchor="start"  >Email Address</text>
<rect x="460" y="460" width="360" height="48" class="" fill="#ffffff" stroke="#bfdbfe" rx="8" filter="url(#shadow-sm)" />
<svg x="472" y="474.0" width="20" height="20" viewBox="0 0 24 24"><path d="M20 21v-2a4 4 0 0 0-4-4H8a4 4 0 0 0-4 4v2 M12 11a4 4 0 1 0 0-8 4 4 0 0 0 0 8z" fill="none" stroke="#475569" stroke-width="2" stroke-linecap="round" stroke-linejoin="round"/></svg>
<text x="500" y="489.0" class="text-primary" font-size="14" font-weight="normal" text-anchor="start"  >engineer@company.com</text>
</g>
<g class="">
<text x="460" y="532" class="text-muted" font-size="13" font-weight="600" text-anchor="start"  >Password</text>
<rect x="460" y="540" width="360" height="48" class="" fill="#ffffff" stroke="#bfdbfe" rx="8" filter="url(#shadow-sm)" />
<svg x="472" y="554.0" width="20" height="20" viewBox="0 0 24 24"><path d="M21 13v6a2 2 0 0 1-2 2H5a2 2 0 0 1-2-2v-6a2 2 0 0 1 2-2h14a2 2 0 0 1 2 2z M12 17v-2 M7 11V7a5 5 0 0 1 10 0v4" fill="none" stroke="#475569" stroke-width="2" stroke-linecap="round" stroke-linejoin="round"/></svg>
<text x="500" y="569.0" class="text-primary" font-size="14" font-weight="normal" text-anchor="start"  >••••••••••••</text>
</g>
<g class="">
<rect x="460" y="620" width="360" height="48" class="btn-primary"   rx="12"  />
<text x="640.0" y="649.0" class="btn-primary-text" font-size="14" font-weight="600" text-anchor="middle"  >Enter Workspace</text>
</g>
</g>
</svg>