<svg xmlns="http://www.w3.org/2000/svg" viewBox="0 0 1280 800" width="1280" height="800">
  <defs>
    <radialGradient id="bg-glow" cx="85%" cy="15%" r="65%">
      <stop offset="0%" stop-color="#38bdf8" stop-opacity="0.25"/>
      <stop offset="100%" stop-color="#061426" stop-opacity="1"/>
    </radialGradient>
    <radialGradient id="bg-glow2" cx="15%" cy="85%" r="65%">
      <stop offset="0%" stop-color="#60a5fa" stop-opacity="0.2"/>
      <stop offset="100%" stop-color="#061426" stop-opacity="0"/>
    </radialGradient>
    <radialGradient id="bg-glow3" cx="50%" cy="50%" r="50%">
      <stop offset="0%" stop-color="#a78bfa" stop-opacity="0.1"/>
      <stop offset="100%" stop-color="#061426" stop-opacity="0"/>
    </radialGradient>
    <linearGradient id="primary-grad" x1="0%" y1="0%" x2="100%" y2="100%">
      <stop offset="0%" stop-color="#38bdf8"/>
      <stop offset="100%" stop-color="#60a5fa"/>
    </linearGradient>
    <linearGradient id="text-grad" x1="0%" y1="0%" x2="100%" y2="0%">
      <stop offset="0%" stop-color="#e0f2fe"/>
      <stop offset="100%" stop-color="#bfdbfe"/>
    </linearGradient>
    <linearGradient id="sidebar-grad" x1="0%" y1="0%" x2="100%" y2="0%">
      <stop offset="0%" stop-color="rgba(7, 19, 39, 0.86)"/>
      <stop offset="100%" stop-color="rgba(7, 19, 39, 0.42)"/>
    </linearGradient>
    <filter id="shadow" x="-20%" y="-20%" width="140%" height="140%">
      <feDropShadow dx="0" dy="12" stdDeviation="24" flood-color="#000000" flood-opacity="0.7"/>
    </filter>
    <filter id="shadow-sm" x="-20%" y="-20%" width="140%" height="140%">
      <feDropShadow dx="0" dy="4" stdDeviation="8" flood-color="#000000" flood-opacity="0.5"/>
    </filter>
    <filter id="glow-primary" x="-20%" y="-20%" width="140%" height="140%">
      <feDropShadow dx="0" dy="6" stdDeviation="12" flood-color="#60a5fa" flood-opacity="0.45"/>
    </filter>
  </defs>
  <style><![CDATA[
    @import url('https://fonts.googleapis.com/css2?family=Inter:wght@300;400;500;600;700;800&family=JetBrains+Mono:wght@400;500&display=swap');
    * { font-family: 'Inter', sans-serif; }
    .mono { font-family: 'JetBrains Mono', monospace; }
    .bg-base { fill: #061426; }
    .card { fill: rgba(9, 25, 48, 0.68); stroke: rgba(56, 189, 248, 0.22); stroke-width: 1; }
    .glass { fill: url(#sidebar-grad); }
    .text-primary { fill: #f0f9ff; }
    .text-muted { fill: #94a3b8; }
    .gradient-text { fill: url(#text-grad); }
    .fade-in { animation: fadeIn 0.8s cubic-bezier(0.16, 1, 0.3, 1) forwards; opacity: 0; }
    .delay-1 { animation-delay: 0.1s; }
    .delay-2 { animation-delay: 0.2s; }
    .delay-3 { animation-delay: 0.3s; }
    .pulse { animation: pulse 2.5s infinite ease-in-out; }
    @keyframes fadeIn { to { opacity: 1; transform: translateY(0); } from { opacity: 0; transform: translateY(20px); } }
    @keyframes pulse { 0% { opacity: 1; } 50% { opacity: 0.5; } 100% { opacity: 1; } }
  ]]></style>
  <rect x="0" y="0" width="1280" height="800" class="bg-base"/>
  <rect x="0" y="0" width="1280" height="800" fill="url(#bg-glow)"/>
  <rect x="0" y="0" width="1280" height="800" fill="url(#bg-glow2)"/>
  <rect x="0" y="0" width="1280" height="800" fill="url(#bg-glow3)"/>
  
  <rect x="0" y="0" width="260" height="800" class="glass" filter="url(#shadow)"/>
  <line x1="260" y1="0" x2="260" y2="800" stroke="rgba(56, 189, 248, 0.1)" stroke-width="1"/>
  <svg x="24" y="32" width="32" height="32" viewBox="0 0 24 24"><path d="M12 2l3 7 7 3-7 3-3 7-3-7-7-3 7-3z" fill="url(#primary-grad)"/><circle cx="18" cy="6" r="1.5" fill="#38bdf8"/><circle cx="6" cy="18" r="1" fill="#60a5fa"/></svg>
  <text x="68" y="54" class="gradient-text" font-size="20" font-weight="800">Future</text>
  <g>
      
      <svg x="36" y="108" width="20" height="20" viewBox="0 0 24 24" style="color:#94a3b8"><path d="M3 9l9-7 9 7v11a2 2 0 0 1-2 2H5a2 2 0 0 1-2-2z" fill="none" stroke="currentColor" stroke-width="2" stroke-linecap="round" stroke-linejoin="round"/></svg>
      <text x="68" y="123" class="text-muted" font-size="15" font-weight="600">Projects</text>
    </g><g>
      
      <svg x="36" y="160" width="20" height="20" viewBox="0 0 24 24" style="color:#94a3b8"><path d="M18 8A6 6 0 0 0 6 8c0 7-3 9-3 9h18s-3-2-3-9 M13.73 21a2 2 0 0 1-3.46 0" fill="none" stroke="currentColor" stroke-width="2" stroke-linecap="round" stroke-linejoin="round"/></svg>
      <text x="68" y="175" class="text-muted" font-size="15" font-weight="600">Notifications</text>
    </g><g>
      <rect x="16" y="200" width="228" height="44" fill="rgba(56, 189, 248, 0.15)" rx="12"/>
      <rect x="16" y="208" width="4" height="28" fill="#60a5fa" rx="2" filter="url(#glow-primary)"/>
      <svg x="36" y="212" width="20" height="20" viewBox="0 0 24 24" style="color:#bfdbfe"><path d="M12 2l7 4v5c0 5-3.5 9.5-7 11-3.5-1.5-7-6-7-11V6l7-4z" fill="none" stroke="currentColor" stroke-width="2" stroke-linejoin="round"/><path d="M9 12l2 2 4-5" fill="none" stroke="currentColor" stroke-width="2" stroke-linecap="round" stroke-linejoin="round"/></svg>
      <text x="68" y="227" class="text-primary" font-size="15" font-weight="700">Admin Console</text>
    </g>
  <line x1="24" y1="716" x2="236" y2="716" stroke="rgba(56, 189, 248, 0.1)" stroke-width="1"/>
  <rect x="24" y="732" width="40" height="40" fill="url(#primary-grad)" rx="20"/>
  <text x="44" y="757" fill="#ffffff" font-size="15" font-weight="700" text-anchor="middle">AD</text>
  <text x="76" y="750" class="text-primary" font-size="13" font-weight="700">admin@co.com</text>
  <text x="76" y="768" class="text-muted" font-size="12">Platform Admin</text>
  <rect x="260" y="0" width="1020" height="72" fill="rgba(7, 19, 39, 0.56)"/>
  <line x1="260" y1="72" x2="1280" y2="72" stroke="rgba(56, 189, 248, 0.1)" stroke-width="1"/>
  <text x="290" y="42" class="text-muted" font-size="14" font-weight="600">Admin Console / Users</text>
  <rect x="980" y="22" width="128" height="28" fill="rgba(52, 211, 153, 0.1)" stroke="rgba(52, 211, 153, 0.3)" rx="14"/>
  <circle cx="996" cy="36" r="4" class="pulse" fill="#a78bfa"/>
  <text x="1010" y="40" font-size="11" font-weight="800" fill="#a78bfa">CONNECTED</text>
  <svg x="1140" y="24" width="24" height="24" viewBox="0 0 24 24" style="color:#94a3b8"><path d="M18 8A6 6 0 0 0 6 8c0 7-3 9-3 9h18s-3-2-3-9 M13.73 21a2 2 0 0 1-3.46 0" fill="none" stroke="currentColor" stroke-width="2" stroke-linecap="round" stroke-linejoin="round"/></svg>
  <circle cx="1158" cy="26" r="4" fill="#f43f5e"/>
  <text x="290" y="130" class="gradient-text fade-in" font-size="32" font-weight="800">Admin Users</text>
  <text x="290" y="155" class="text-muted fade-in delay-1" font-size="16">Manage activation, roles, and project access without exposing cross-project data.</text>
  <rect x="1060" y="105" width="180" height="44" fill="url(#primary-grad)" rx="8" filter="url(#glow-primary)"/>
  <text x="1150" y="132" fill="#ffffff" font-size="14" font-weight="700" text-anchor="middle">Invite User</text><g class="fade-in delay-2">
    <rect x="290" y="198" width="386" height="44" fill="rgba(7, 19, 39, 0.76)" stroke="rgba(56, 189, 248, 0.2)" rx="8" filter="url(#shadow-sm)"/>
    <svg x="304" y="210" width="20" height="20" viewBox="0 0 24 24" style="color:#94a3b8"><path d="M21 21l-6-6m2-5a7 7 0 11-14 0 7 7 0 0114 0z" fill="none" stroke="currentColor" stroke-width="2" stroke-linecap="round" stroke-linejoin="round"/></svg>
    <text x="334" y="226" class="text-muted" font-size="14">Search users by name or email...</text>
    <rect x="700" y="198" width="132" height="44" fill="rgba(7, 19, 39, 0.76)" stroke="rgba(56, 189, 248, 0.2)" rx="8" filter="url(#shadow-sm)"/>
    <text x="716" y="226" class="text-primary" font-size="13" font-weight="700">All Roles</text>
    <svg x="802" y="210" width="20" height="20" viewBox="0 0 24 24" style="color:#94a3b8"><path d="M6 9l6 6 6-6" fill="none" stroke="currentColor" stroke-width="2" stroke-linecap="round" stroke-linejoin="round"/></svg><rect x="848" y="198" width="132" height="44" fill="rgba(7, 19, 39, 0.76)" stroke="rgba(56, 189, 248, 0.2)" rx="8" filter="url(#shadow-sm)"/>
    <text x="864" y="226" class="text-primary" font-size="13" font-weight="700">All States</text>
    <svg x="950" y="210" width="20" height="20" viewBox="0 0 24 24" style="color:#94a3b8"><path d="M6 9l6 6 6-6" fill="none" stroke="currentColor" stroke-width="2" stroke-linecap="round" stroke-linejoin="round"/></svg>
  </g><g class="fade-in delay-2">
    <rect x="290" y="270" width="224" height="106" class="card" rx="8" filter="url(#shadow-sm)"/>
    <text x="310" y="304" class="text-muted" font-size="12" font-weight="800">ACTIVE USERS</text>
    <text x="310" y="336" fill="#a78bfa" font-size="30" font-weight="800">24</text>
    <text x="310" y="358" class="text-muted" font-size="12">Company-authenticated accounts</text>
  </g><g class="fade-in delay-2">
    <rect x="534" y="270" width="224" height="106" class="card" rx="8" filter="url(#shadow-sm)"/>
    <text x="554" y="304" class="text-muted" font-size="12" font-weight="800">ADMINS</text>
    <text x="554" y="336" fill="#60a5fa" font-size="30" font-weight="800">3</text>
    <text x="554" y="358" class="text-muted" font-size="12">Can access admin console</text>
  </g><g class="fade-in delay-2">
    <rect x="778" y="270" width="224" height="106" class="card" rx="8" filter="url(#shadow-sm)"/>
    <text x="798" y="304" class="text-muted" font-size="12" font-weight="800">PROJECT OWNERS</text>
    <text x="798" y="336" fill="#bfdbfe" font-size="30" font-weight="800">7</text>
    <text x="798" y="358" class="text-muted" font-size="12">Can approve access</text>
  </g><g class="fade-in delay-2">
    <rect x="1022" y="270" width="218" height="106" class="card" rx="8" filter="url(#shadow-sm)"/>
    <text x="1042" y="304" class="text-muted" font-size="12" font-weight="800">DISABLED</text>
    <text x="1042" y="336" fill="#94a3b8" font-size="30" font-weight="800">2</text>
    <text x="1042" y="358" class="text-muted" font-size="12">Blocked from login</text>
  </g><rect x="290" y="418" width="950" height="242" class="card" rx="8" filter="url(#shadow-sm)"/>
  <rect x="290" y="418" width="950" height="44" fill="rgba(56, 189, 248, 0.08)" rx="8"/>
  <line x1="290" y1="462" x2="1240" y2="462" stroke="rgba(56, 189, 248, 0.1)"/><text x="310" y="446" class="text-muted" font-size="11" font-weight="800">NAME</text><text x="460" y="446" class="text-muted" font-size="11" font-weight="800">EMAIL</text><text x="678" y="446" class="text-muted" font-size="11" font-weight="800">ROLE</text><text x="834" y="446" class="text-muted" font-size="11" font-weight="800">STATE</text><text x="968" y="446" class="text-muted" font-size="11" font-weight="800">ACCESS</text><text x="1142" y="446" class="text-muted" font-size="11" font-weight="800">ACTION</text><line x1="290" y1="510" x2="1240" y2="510" stroke="rgba(56, 189, 248, 0.1)"/><text x="310" y="492" class="text-primary" font-size="13" font-weight="800">Ava Nguyen</text><text x="460" y="492" class="text-primary" font-size="13" font-weight="800">admin@co.com</text><rect x="678" y="474" width="88" height="24" fill="#60a5fa22" stroke="#60a5fa" stroke-opacity="0.35" rx="12"/>
  <text x="722" y="490" fill="#60a5fa" font-size="11" font-weight="800" text-anchor="middle">ADMIN</text><rect x="834" y="474" width="78" height="24" fill="#a78bfa22" stroke="#a78bfa" stroke-opacity="0.35" rx="12"/>
  <text x="873" y="490" fill="#a78bfa" font-size="11" font-weight="800" text-anchor="middle">ACTIVE</text><text x="968" y="492" class="text-primary" font-size="13" font-weight="800">All projects</text><text x="1142" y="492" class="text-muted" font-size="13" font-weight="600">Edit</text><line x1="290" y1="558" x2="1240" y2="558" stroke="rgba(56, 189, 248, 0.1)"/><text x="310" y="540" class="text-primary" font-size="13" font-weight="800">Minh Tran</text><text x="460" y="540" class="text-primary" font-size="13" font-weight="800">engineer@co.com</text><rect x="678" y="522" width="112" height="24" fill="#38bdf822" stroke="#38bdf8" stroke-opacity="0.35" rx="12"/>
  <text x="734" y="538" fill="#38bdf8" font-size="11" font-weight="800" text-anchor="middle">AI ENGINEER</text><rect x="834" y="522" width="78" height="24" fill="#a78bfa22" stroke="#a78bfa" stroke-opacity="0.35" rx="12"/>
  <text x="873" y="538" fill="#a78bfa" font-size="11" font-weight="800" text-anchor="middle">ACTIVE</text><text x="968" y="540" class="text-primary" font-size="13" font-weight="800">4 projects</text><text x="1142" y="540" class="text-muted" font-size="13" font-weight="600">Edit</text><line x1="290" y1="606" x2="1240" y2="606" stroke="rgba(56, 189, 248, 0.1)"/><text x="310" y="588" class="text-primary" font-size="13" font-weight="800">Linh Pham</text><text x="460" y="588" class="text-primary" font-size="13" font-weight="800">owner@co.com</text><rect x="678" y="570" width="88" height="24" fill="#bfdbfe22" stroke="#bfdbfe" stroke-opacity="0.35" rx="12"/>
  <text x="722" y="586" fill="#bfdbfe" font-size="11" font-weight="800" text-anchor="middle">OWNER</text><rect x="834" y="570" width="78" height="24" fill="#a78bfa22" stroke="#a78bfa" stroke-opacity="0.35" rx="12"/>
  <text x="873" y="586" fill="#a78bfa" font-size="11" font-weight="800" text-anchor="middle">ACTIVE</text><text x="968" y="588" class="text-primary" font-size="13" font-weight="800">2 projects</text><text x="1142" y="588" class="text-muted" font-size="13" font-weight="600">Edit</text><line x1="290" y1="654" x2="1240" y2="654" stroke="rgba(56, 189, 248, 0.1)"/><text x="310" y="636" class="text-primary" font-size="13" font-weight="800">Bao Le</text><text x="460" y="636" class="text-primary" font-size="13" font-weight="800">contractor@co.com</text><rect x="678" y="618" width="112" height="24" fill="#38bdf822" stroke="#38bdf8" stroke-opacity="0.35" rx="12"/>
  <text x="734" y="634" fill="#38bdf8" font-size="11" font-weight="800" text-anchor="middle">AI ENGINEER</text><rect x="834" y="618" width="92" height="24" fill="#94a3b822" stroke="#94a3b8" stroke-opacity="0.35" rx="12"/>
  <text x="880" y="634" fill="#94a3b8" font-size="11" font-weight="800" text-anchor="middle">DISABLED</text><text x="968" y="636" class="text-primary" font-size="13" font-weight="800">0 projects</text><text x="1142" y="636" class="text-muted" font-size="13" font-weight="600">Review</text>
</svg>
