<svg xmlns="http://www.w3.org/2000/svg" viewBox="0 0 1280 800" width="1280" height="800">
  <defs>
    <radialGradient id="bg-glow" cx="85%" cy="15%" r="65%">
      <stop offset="0%" stop-color="#38bdf8" stop-opacity="0.25"/>
      <stop offset="100%" stop-color="#061426" stop-opacity="1"/>
    </radialGradient>
    <radialGradient id="bg-glow2" cx="15%" cy="85%" r="65%">
      <stop offset="0%" stop-color="#60a5fa" stop-opacity="0.2"/>
      <stop offset="100%" stop-color="#061426" stop-opacity="0"/>
    </radialGradient>
    <radialGradient id="bg-glow3" cx="50%" cy="50%" r="50%">
      <stop offset="0%" stop-color="#a78bfa" stop-opacity="0.1"/>
      <stop offset="100%" stop-color="#061426" stop-opacity="0"/>
    </radialGradient>
    <linearGradient id="primary-grad" x1="0%" y1="0%" x2="100%" y2="100%">
      <stop offset="0%" stop-color="#38bdf8"/>
      <stop offset="100%" stop-color="#60a5fa"/>
    </linearGradient>
    <linearGradient id="text-grad" x1="0%" y1="0%" x2="100%" y2="0%">
      <stop offset="0%" stop-color="#e0f2fe"/>
      <stop offset="100%" stop-color="#bfdbfe"/>
    </linearGradient>
    <linearGradient id="sidebar-grad" x1="0%" y1="0%" x2="100%" y2="0%">
      <stop offset="0%" stop-color="rgba(7, 19, 39, 0.86)"/>
      <stop offset="100%" stop-color="rgba(7, 19, 39, 0.42)"/>
    </linearGradient>
    <filter id="shadow" x="-20%" y="-20%" width="140%" height="140%">
      <feDropShadow dx="0" dy="12" stdDeviation="24" flood-color="#000000" flood-opacity="0.7"/>
    </filter>
    <filter id="shadow-sm" x="-20%" y="-20%" width="140%" height="140%">
      <feDropShadow dx="0" dy="4" stdDeviation="8" flood-color="#000000" flood-opacity="0.5"/>
    </filter>
    <filter id="glow-primary" x="-20%" y="-20%" width="140%" height="140%">
      <feDropShadow dx="0" dy="6" stdDeviation="12" flood-color="#60a5fa" flood-opacity="0.45"/>
    </filter>
  </defs>
  <style><![CDATA[
    @import url('https://fonts.googleapis.com/css2?family=Inter:wght@300;400;500;600;700;800&family=JetBrains+Mono:wght@400;500&display=swap');
    * { font-family: 'Inter', sans-serif; }
    .mono { font-family: 'JetBrains Mono', monospace; }
    .bg-base { fill: #061426; }
    .card { fill: rgba(9, 25, 48, 0.68); stroke: rgba(56, 189, 248, 0.22); stroke-width: 1; }
    .glass { fill: url(#sidebar-grad); }
    .text-primary { fill: #f0f9ff; }
    .text-muted { fill: #94a3b8; }
    .gradient-text { fill: url(#text-grad); }
    .fade-in { animation: fadeIn 0.8s cubic-bezier(0.16, 1, 0.3, 1) forwards; opacity: 0; }
    .delay-1 { animation-delay: 0.1s; }
    .delay-2 { animation-delay: 0.2s; }
    .delay-3 { animation-delay: 0.3s; }
    .pulse { animation: pulse 2.5s infinite ease-in-out; }
    @keyframes fadeIn { to { opacity: 1; transform: translateY(0); } from { opacity: 0; transform: translateY(20px); } }
    @keyframes pulse { 0% { opacity: 1; } 50% { opacity: 0.5; } 100% { opacity: 1; } }
  ]]></style>
  <rect x="0" y="0" width="1280" height="800" class="bg-base"/>
  <rect x="0" y="0" width="1280" height="800" fill="url(#bg-glow)"/>
  <rect x="0" y="0" width="1280" height="800" fill="url(#bg-glow2)"/>
  <rect x="0" y="0" width="1280" height="800" fill="url(#bg-glow3)"/>
  
  <rect x="0" y="0" width="260" height="800" class="glass" filter="url(#shadow)"/>
  <line x1="260" y1="0" x2="260" y2="800" stroke="rgba(56, 189, 248, 0.1)" stroke-width="1"/>
  <svg x="24" y="32" width="32" height="32" viewBox="0 0 24 24"><path d="M12 2l3 7 7 3-7 3-3 7-3-7-7-3 7-3z" fill="url(#primary-grad)"/><circle cx="18" cy="6" r="1.5" fill="#38bdf8"/><circle cx="6" cy="18" r="1" fill="#60a5fa"/></svg>
  <text x="68" y="54" class="gradient-text" font-size="20" font-weight="800">Future</text>
  <g>
      
      <svg x="36" y="108" width="20" height="20" viewBox="0 0 24 24" style="color:#94a3b8"><path d="M3 9l9-7 9 7v11a2 2 0 0 1-2 2H5a2 2 0 0 1-2-2z" fill="none" stroke="currentColor" stroke-width="2" stroke-linecap="round" stroke-linejoin="round"/></svg>
      <text x="68" y="123" class="text-muted" font-size="15" font-weight="600">Projects</text>
    </g><g>
      
      <svg x="36" y="160" width="20" height="20" viewBox="0 0 24 24" style="color:#94a3b8"><path d="M18 8A6 6 0 0 0 6 8c0 7-3 9-3 9h18s-3-2-3-9 M13.73 21a2 2 0 0 1-3.46 0" fill="none" stroke="currentColor" stroke-width="2" stroke-linecap="round" stroke-linejoin="round"/></svg>
      <text x="68" y="175" class="text-muted" font-size="15" font-weight="600">Notifications</text>
    </g><g>
      <rect x="16" y="200" width="228" height="44" fill="rgba(56, 189, 248, 0.15)" rx="12"/>
      <rect x="16" y="208" width="4" height="28" fill="#60a5fa" rx="2" filter="url(#glow-primary)"/>
      <svg x="36" y="212" width="20" height="20" viewBox="0 0 24 24" style="color:#bfdbfe"><path d="M12 2l7 4v5c0 5-3.5 9.5-7 11-3.5-1.5-7-6-7-11V6l7-4z" fill="none" stroke="currentColor" stroke-width="2" stroke-linejoin="round"/><path d="M9 12l2 2 4-5" fill="none" stroke="currentColor" stroke-width="2" stroke-linecap="round" stroke-linejoin="round"/></svg>
      <text x="68" y="227" class="text-primary" font-size="15" font-weight="700">Admin Console</text>
    </g>
  <line x1="24" y1="716" x2="236" y2="716" stroke="rgba(56, 189, 248, 0.1)" stroke-width="1"/>
  <rect x="24" y="732" width="40" height="40" fill="url(#primary-grad)" rx="20"/>
  <text x="44" y="757" fill="#ffffff" font-size="15" font-weight="700" text-anchor="middle">AD</text>
  <text x="76" y="750" class="text-primary" font-size="13" font-weight="700">admin@co.com</text>
  <text x="76" y="768" class="text-muted" font-size="12">Platform Admin</text>
  <rect x="260" y="0" width="1020" height="72" fill="rgba(7, 19, 39, 0.56)"/>
  <line x1="260" y1="72" x2="1280" y2="72" stroke="rgba(56, 189, 248, 0.1)" stroke-width="1"/>
  <text x="290" y="42" class="text-muted" font-size="14" font-weight="600">Admin Console / Audit</text>
  <rect x="980" y="22" width="128" height="28" fill="rgba(52, 211, 153, 0.1)" stroke="rgba(52, 211, 153, 0.3)" rx="14"/>
  <circle cx="996" cy="36" r="4" class="pulse" fill="#a78bfa"/>
  <text x="1010" y="40" font-size="11" font-weight="800" fill="#a78bfa">CONNECTED</text>
  <svg x="1140" y="24" width="24" height="24" viewBox="0 0 24 24" style="color:#94a3b8"><path d="M18 8A6 6 0 0 0 6 8c0 7-3 9-3 9h18s-3-2-3-9 M13.73 21a2 2 0 0 1-3.46 0" fill="none" stroke="currentColor" stroke-width="2" stroke-linecap="round" stroke-linejoin="round"/></svg>
  <circle cx="1158" cy="26" r="4" fill="#f43f5e"/>
  <text x="290" y="130" class="gradient-text fade-in" font-size="32" font-weight="800">Admin Audit</text>
  <text x="290" y="155" class="text-muted fade-in delay-1" font-size="16">Trace privileged actions, authorization decisions, and job operations by correlation ID.</text>
  <rect x="1060" y="105" width="180" height="44" fill="url(#primary-grad)" rx="8" filter="url(#glow-primary)"/>
  <text x="1150" y="132" fill="#ffffff" font-size="14" font-weight="700" text-anchor="middle">Export CSV</text><g class="fade-in delay-2">
    <rect x="290" y="198" width="386" height="44" fill="rgba(7, 19, 39, 0.76)" stroke="rgba(56, 189, 248, 0.2)" rx="8" filter="url(#shadow-sm)"/>
    <svg x="304" y="210" width="20" height="20" viewBox="0 0 24 24" style="color:#94a3b8"><path d="M21 21l-6-6m2-5a7 7 0 11-14 0 7 7 0 0114 0z" fill="none" stroke="currentColor" stroke-width="2" stroke-linecap="round" stroke-linejoin="round"/></svg>
    <text x="334" y="226" class="text-muted" font-size="14">Search actor, action, or correlation ID...</text>
    <rect x="700" y="198" width="132" height="44" fill="rgba(7, 19, 39, 0.76)" stroke="rgba(56, 189, 248, 0.2)" rx="8" filter="url(#shadow-sm)"/>
    <text x="716" y="226" class="text-primary" font-size="13" font-weight="700">Last 24h</text>
    <svg x="802" y="210" width="20" height="20" viewBox="0 0 24 24" style="color:#94a3b8"><path d="M6 9l6 6 6-6" fill="none" stroke="currentColor" stroke-width="2" stroke-linecap="round" stroke-linejoin="round"/></svg><rect x="848" y="198" width="132" height="44" fill="rgba(7, 19, 39, 0.76)" stroke="rgba(56, 189, 248, 0.2)" rx="8" filter="url(#shadow-sm)"/>
    <text x="864" y="226" class="text-primary" font-size="13" font-weight="700">All Actions</text>
    <svg x="950" y="210" width="20" height="20" viewBox="0 0 24 24" style="color:#94a3b8"><path d="M6 9l6 6 6-6" fill="none" stroke="currentColor" stroke-width="2" stroke-linecap="round" stroke-linejoin="round"/></svg>
  </g><g class="fade-in delay-2">
      <rect x="290" y="270" width="950" height="76" class="card" rx="8" filter="url(#shadow-sm)"/>
      <text x="314" y="300" class="text-primary" font-size="15" font-weight="800">Focused Review</text>
      <text x="314" y="324" class="text-muted" font-size="13">Cross-project access denial from engineer@co.com is highlighted for security follow-up.</text>
      <rect x="1084" y="292" width="116" height="24" fill="#f43f5e22" stroke="#f43f5e" stroke-opacity="0.35" rx="12"/>
  <text x="1142" y="308" fill="#f43f5e" font-size="11" font-weight="800" text-anchor="middle">NEEDS REVIEW</text>
    </g><rect x="290" y="378" width="950" height="290" class="card" rx="8" filter="url(#shadow-sm)"/>
  <rect x="290" y="378" width="950" height="44" fill="rgba(56, 189, 248, 0.08)" rx="8"/>
  <line x1="290" y1="422" x2="1240" y2="422" stroke="rgba(56, 189, 248, 0.1)"/><text x="310" y="406" class="text-muted" font-size="11" font-weight="800">TIME</text><text x="480" y="406" class="text-muted" font-size="11" font-weight="800">ACTION</text><text x="724" y="406" class="text-muted" font-size="11" font-weight="800">ACTOR</text><text x="906" y="406" class="text-muted" font-size="11" font-weight="800">CORRELATION ID</text><text x="1096" y="406" class="text-muted" font-size="11" font-weight="800">RESULT</text><line x1="290" y1="470" x2="1240" y2="470" stroke="rgba(56, 189, 248, 0.1)"/><text x="310" y="452" class="mono text-primary" font-size="12" font-weight="600">2026-06-09 09:12</text><text x="480" y="452" class="text-primary" font-size="13" font-weight="800">AUTH_ROLE_UPDATED</text><text x="724" y="452" class="text-primary" font-size="13" font-weight="800">admin@co.com</text><text x="906" y="452" class="mono text-primary" font-size="12" font-weight="600">corr-7a91e2</text><rect x="1096" y="434" width="88" height="24" fill="#a78bfa22" stroke="#a78bfa" stroke-opacity="0.35" rx="12"/>
  <text x="1140" y="450" fill="#a78bfa" font-size="11" font-weight="800" text-anchor="middle">SUCCESS</text><line x1="290" y1="518" x2="1240" y2="518" stroke="rgba(56, 189, 248, 0.1)"/><text x="310" y="500" class="mono text-primary" font-size="12" font-weight="600">2026-06-09 09:06</text><text x="480" y="500" class="text-primary" font-size="13" font-weight="800">QUEUE_JOB_CANCELLED</text><text x="724" y="500" class="text-primary" font-size="13" font-weight="800">admin@co.com</text><text x="906" y="500" class="mono text-primary" font-size="12" font-weight="600">corr-f11c84</text><rect x="1096" y="482" width="88" height="24" fill="#a78bfa22" stroke="#a78bfa" stroke-opacity="0.35" rx="12"/>
  <text x="1140" y="498" fill="#a78bfa" font-size="11" font-weight="800" text-anchor="middle">SUCCESS</text><line x1="290" y1="566" x2="1240" y2="566" stroke="rgba(56, 189, 248, 0.1)"/><text x="310" y="548" class="mono text-primary" font-size="12" font-weight="600">2026-06-09 08:54</text><text x="480" y="548" class="text-primary" font-size="13" font-weight="800">PROJECT_ACCESS_DENIED</text><text x="724" y="548" class="text-primary" font-size="13" font-weight="800">engineer@co.com</text><text x="906" y="548" class="mono text-primary" font-size="12" font-weight="600">corr-b49d01</text><rect x="1096" y="530" width="88" height="24" fill="#f43f5e22" stroke="#f43f5e" stroke-opacity="0.35" rx="12"/>
  <text x="1140" y="546" fill="#f43f5e" font-size="11" font-weight="800" text-anchor="middle">FAILED</text><line x1="290" y1="614" x2="1240" y2="614" stroke="rgba(56, 189, 248, 0.1)"/><text x="310" y="596" class="mono text-primary" font-size="12" font-weight="600">2026-06-09 08:21</text><text x="480" y="596" class="text-primary" font-size="13" font-weight="800">JOB_RETRY_REQUESTED</text><text x="724" y="596" class="text-primary" font-size="13" font-weight="800">owner@co.com</text><text x="906" y="596" class="mono text-primary" font-size="12" font-weight="600">corr-33cd10</text><rect x="1096" y="578" width="88" height="24" fill="#a78bfa22" stroke="#a78bfa" stroke-opacity="0.35" rx="12"/>
  <text x="1140" y="594" fill="#a78bfa" font-size="11" font-weight="800" text-anchor="middle">SUCCESS</text><line x1="290" y1="662" x2="1240" y2="662" stroke="rgba(56, 189, 248, 0.1)"/><text x="310" y="644" class="mono text-primary" font-size="12" font-weight="600">2026-06-09 07:58</text><text x="480" y="644" class="text-primary" font-size="13" font-weight="800">CONFIG_SNAPSHOT_SAVED</text><text x="724" y="644" class="text-primary" font-size="13" font-weight="800">engineer@co.com</text><text x="906" y="644" class="mono text-primary" font-size="12" font-weight="600">corr-a1029b</text><rect x="1096" y="626" width="88" height="24" fill="#a78bfa22" stroke="#a78bfa" stroke-opacity="0.35" rx="12"/>
  <text x="1140" y="642" fill="#a78bfa" font-size="11" font-weight="800" text-anchor="middle">SUCCESS</text>
</svg>
