<svg xmlns="http://www.w3.org/2000/svg" viewBox="0 0 1280 800" width="1280" height="800">

        <defs>
            <radialGradient id="bg-glow" cx="85%" cy="15%" r="65%">
                <stop offset="0%" stop-color="#38bdf8" stop-opacity="0.25"/>
                <stop offset="100%" stop-color="#061426" stop-opacity="1"/>
            </radialGradient>
            <radialGradient id="bg-glow2" cx="15%" cy="85%" r="65%">
                <stop offset="0%" stop-color="#2563eb" stop-opacity="0.2"/>
                <stop offset="100%" stop-color="#061426" stop-opacity="0"/>
            </radialGradient>
            <radialGradient id="bg-glow3" cx="50%" cy="50%" r="50%">
                <stop offset="0%" stop-color="#a78bfa" stop-opacity="0.1"/>
                <stop offset="100%" stop-color="#061426" stop-opacity="0"/>
            </radialGradient>
            
            <linearGradient id="primary-grad" x1="0%" y1="0%" x2="100%" y2="100%">
                <stop offset="0%" stop-color="#38bdf8"/>
                <stop offset="100%" stop-color="#60a5fa"/>
            </linearGradient>
            
            <linearGradient id="text-grad" x1="0%" y1="0%" x2="100%" y2="0%">
                <stop offset="0%" stop-color="#e0f2fe"/>
                <stop offset="100%" stop-color="#bfdbfe"/>
            </linearGradient>
            
            <linearGradient id="sidebar-grad" x1="0%" y1="0%" x2="100%" y2="0%">
                <stop offset="0%" stop-color="rgba(7, 19, 39, 0.86)"/>
                <stop offset="100%" stop-color="rgba(7, 19, 39, 0.42)"/>
            </linearGradient>
            
            <filter id="shadow" x="-20%" y="-20%" width="140%" height="140%">
                <feDropShadow dx="0" dy="12" stdDeviation="24" flood-color="#000000" flood-opacity="0.7"/>
            </filter>
            <filter id="shadow-sm" x="-20%" y="-20%" width="140%" height="140%">
                <feDropShadow dx="0" dy="4" stdDeviation="8" flood-color="#000000" flood-opacity="0.5"/>
            </filter>
            
            <filter id="glow-primary" x="-20%" y="-20%" width="140%" height="140%">
                <feDropShadow dx="0" dy="6" stdDeviation="12" flood-color="#60a5fa" flood-opacity="0.5"/>
            </filter>
            <filter id="glow-success" x="-20%" y="-20%" width="140%" height="140%">
                <feDropShadow dx="0" dy="4" stdDeviation="8" flood-color="#a78bfa" flood-opacity="0.5"/>
            </filter>
            
            <filter id="blur" x="-20%" y="-20%" width="140%" height="140%">
                <feGaussianBlur stdDeviation="16"/>
            </filter>
        </defs>
        <style><![CDATA[

        @import url('https://fonts.googleapis.com/css2?family=Inter:wght@300;400;500;600;700;800&family=JetBrains+Mono:wght@400;500&display=swap');
        * { font-family: 'Inter', sans-serif; }
        .mono { font-family: 'JetBrains Mono', monospace; }
        
        .bg-base { fill: #061426; }
        .card { fill: rgba(9, 25, 48, 0.68); stroke: rgba(56, 189, 248, 0.22); stroke-width: 1; backdrop-filter: blur(12px); }
        .card:hover { stroke: rgba(96, 165, 250, 0.58); transition: stroke 0.3s ease; }
        .glass { fill: url(#sidebar-grad); }
        
        .text-primary { fill: #f0f9ff; }
        .text-muted { fill: #94a3b8; }
        .gradient-text { fill: url(#text-grad); }
        
        .pulse { animation: pulse 2.5s infinite ease-in-out; }
        @keyframes pulse { 0% { opacity: 1; } 50% { opacity: 0.5; } 100% { opacity: 1; } }
        .spin { animation: spin 2s linear infinite; transform-origin: center; }
        @keyframes spin { 100% { transform: rotate(360deg); } }
        .fade-in { animation: fadeIn 0.8s cubic-bezier(0.16, 1, 0.3, 1) forwards; opacity: 0; }
        .delay-1 { animation-delay: 0.1s; }
        .delay-2 { animation-delay: 0.2s; }
        .delay-3 { animation-delay: 0.3s; }
        @keyframes fadeIn { to { opacity: 1; transform: translateY(0); } from { opacity: 0; transform: translateY(20px); } }
        
        .btn-primary { fill: url(#primary-grad); filter: url(#glow-primary); transition: filter 0.3s; cursor: pointer; }
        .btn-primary:hover { filter: brightness(1.1) url(#glow-primary); }
        .btn-primary-text { fill: #ffffff; }
        
        .btn-secondary { fill: rgba(56, 189, 248, 0.05); stroke: rgba(56, 189, 248, 0.2); cursor: pointer; transition: all 0.2s; }
        .btn-secondary:hover { fill: rgba(56, 189, 248, 0.1); stroke: rgba(96, 165, 250, 0.58); }
        .btn-secondary-text { fill: #e0f2fe; }
        
        .btn-danger { fill: rgba(244, 63, 94, 0.1); stroke: rgba(244, 63, 94, 0.3); }
        .btn-danger-text { fill: #fca5a5; }
        
]]></style>
<rect x="0" y="0" width="1280" height="800" class="bg-base"   rx="0"  />
<rect x="0" y="0" width="1280" height="800" class="" fill="url(#bg-glow)"  rx="0"  />
<rect x="0" y="0" width="1280" height="800" class="" fill="url(#bg-glow2)"  rx="0"  />
<rect x="0" y="0" width="1280" height="800" class="" fill="url(#bg-glow3)"  rx="0"  />
<rect x="0" y="0" width="260" height="800" class="glass"   rx="0" filter="url(#shadow)" />
<line x1="260" y1="0" x2="260" y2="800" stroke="rgba(56, 189, 248, 0.1)" stroke-width="1"  />
<svg x="24" y="32" width="32" height="32" viewBox="0 0 24 24"><path d="M12 2l3 7 7 3-7 3-3 7-3-7-7-3 7-3z" fill="url(#primary-grad)" stroke="none"/><circle cx="18" cy="6" r="1.5" fill="#38bdf8"/><circle cx="6" cy="18" r="1" fill="#60a5fa"/></svg>
<text x="68" y="54" class="gradient-text" font-size="20" font-weight="800" text-anchor="start"  >Future</text>
<rect x="16" y="96" width="228" height="44" class="" fill="rgba(56, 189, 248, 0.15)"  rx="12"  />
<rect x="16" y="104" width="4" height="28" class="" fill="#60a5fa"  rx="2" filter="url(#glow-primary)" />
<svg x="36" y="108" width="20" height="20" viewBox="0 0 24 24"><path d="M3 9l9-7 9 7v11a2 2 0 0 1-2 2H5a2 2 0 0 1-2-2z" fill="none" stroke="#f0f9ff" stroke-width="2" stroke-linecap="round" stroke-linejoin="round"/></svg>
<text x="68" y="123" class="text-primary" font-size="15" font-weight="700" text-anchor="start"  >Projects</text>
<line x1="24" y1="716" x2="236" y2="716" stroke="rgba(56, 189, 248, 0.1)" stroke-width="1"  />
<rect x="24" y="732" width="40" height="40" class="" fill="url(#primary-grad)"  rx="20"  />
<text x="44" y="757" class="text-primary" font-size="15" font-weight="700" text-anchor="middle" fill="#ffffff" >EN</text>
<text x="76" y="750" class="text-primary" font-size="13" font-weight="700" text-anchor="start"  >engineer@co.com</text>
<text x="76" y="768" class="text-muted" font-size="12" font-weight="normal" text-anchor="start"  >AI Engineer</text>
<rect x="260" y="0" width="1020" height="72" class="" fill="rgba(7, 19, 39, 0.56)"  rx="0" backdrop-filter="blur(12px)" />
<line x1="260" y1="72" x2="1280" y2="72" stroke="rgba(56, 189, 248, 0.1)" stroke-width="1"  />
<text x="290" y="42" class="text-muted" font-size="14" font-weight="600" text-anchor="start"  >Projects</text>
<rect x="980" y="22" width="128" height="28" class="" fill="rgba(52, 211, 153, 0.1)" stroke="rgba(52, 211, 153, 0.3)" rx="14"  />
<circle cx="996" cy="36" r="4" class="pulse" fill="#a78bfa"  filter="url(#glow-success)" />
<text x="1010" y="40" class="text-primary" font-size="11" font-weight="800" text-anchor="start" fill="#a78bfa" >CONNECTED</text>
<svg x="1140" y="24" width="24" height="24" viewBox="0 0 24 24"><path d="M18 8A6 6 0 0 0 6 8c0 7-3 9-3 9h18s-3-2-3-9 M13.73 21a2 2 0 0 1-3.46 0" fill="none" stroke="#94a3b8" stroke-width="2" stroke-linecap="round" stroke-linejoin="round"/></svg>
<circle cx="1158" cy="26" r="4" class="" fill="#f43f5e"   />
<text x="290" y="130" class="gradient-text fade-in" font-size="32" font-weight="800" text-anchor="start"  >Hopeful AI Projects</text>
<text x="290" y="155" class="text-muted fade-in delay-1" font-size="16" font-weight="normal" text-anchor="start"  >Monitor progress, nurture models, and keep every run moving toward better outcomes.</text>
<g class="">
<rect x="1060" y="105" width="180" height="44" class="btn-primary fade-in delay-1"   rx="8"  />
<text x="1150.0" y="132.0" class="btn-primary-text" font-size="14" font-weight="600" text-anchor="middle"  >+ Register Project</text>
</g>
<g class="fade-in delay-2">
<g class="">
<rect x="290" y="200" width="400" height="44" class="" fill="rgba(7, 19, 39, 0.76)" stroke="rgba(56, 189, 248, 0.2)" rx="8" filter="url(#shadow-sm)" />
<svg x="302" y="212.0" width="20" height="20" viewBox="0 0 24 24"><path d="M21 21l-6-6m2-5a7 7 0 11-14 0 7 7 0 0114 0z" fill="none" stroke="#94a3b8" stroke-width="2" stroke-linecap="round" stroke-linejoin="round"/></svg>
<text x="330" y="227.0" class="text-primary" font-size="14" font-weight="normal" text-anchor="start"  >Search projects...</text>
</g>
<rect x="710" y="200" width="140" height="44" class="" fill="rgba(7, 19, 39, 0.76)" stroke="rgba(56, 189, 248, 0.2)" rx="8" filter="url(#shadow-sm)" />
<text x="726" y="227" class="text-primary" font-size="14" font-weight="600" text-anchor="start"  >All Statuses</text>
<svg x="820" y="212" width="20" height="20" viewBox="0 0 24 24"><path d="M6 9l6 6 6-6" fill="none" stroke="#94a3b8" stroke-width="2" stroke-linecap="round" stroke-linejoin="round"/></svg>
</g>
<g class="fade-in delay-3">
<rect x="290" y="270" width="340" height="160" class="card" fill="rgba(9, 25, 48, 0.68)" stroke="rgba(56, 189, 248, 0.15)" rx="16" filter="url(#shadow-sm)" />
<text x="314" y="306" class="text-primary" font-size="16" font-weight="800" text-anchor="start"  >Fraud Detection</text>
<text x="314" y="330" class="text-muted" font-size="14" font-weight="normal" text-anchor="start"  >Financial anomaly detection model.</text>
<line x1="314" y1="355" x2="606" y2="355" stroke="rgba(56, 189, 248, 0.1)" stroke-width="1"  />
<rect x="314" y="369" width="80" height="24" class="" fill="rgba(244, 63, 94, 0.15)" stroke="#f43f5e" rx="12" stroke-opacity="0.3" />
<svg x="320" y="373" width="16" height="16" viewBox="0 0 24 24"><path d="M6 18L18 6M6 6l12 12" fill="none" stroke="#f43f5e" stroke-width="2" stroke-linecap="round" stroke-linejoin="round"/></svg>
<text x="340" y="386" class="" font-size="11" font-weight="700" text-anchor="start" fill="#f43f5e" >FAILED</text>
<text x="314" y="415" class="text-muted" font-size="12" font-weight="normal" text-anchor="start"  >Last run: 2 hours ago</text>
<rect x="650" y="270" width="340" height="160" class="card" fill="rgba(9, 25, 48, 0.68)" stroke="rgba(56, 189, 248, 0.15)" rx="16" filter="url(#shadow-sm)" />
<text x="674" y="306" class="text-primary" font-size="16" font-weight="800" text-anchor="start"  >Recommendation Engine</text>
<text x="674" y="330" class="text-muted" font-size="14" font-weight="normal" text-anchor="start"  >Real-time user product suggestions.</text>
<line x1="674" y1="355" x2="966" y2="355" stroke="rgba(56, 189, 248, 0.1)" stroke-width="1"  />
<rect x="674" y="369" width="88" height="24" class="" fill="rgba(56, 189, 248, 0.15)" stroke="#38bdf8" rx="12" stroke-opacity="0.3" />
<circle cx="688" cy="381" r="5" fill="none" stroke="#38bdf8" stroke-width="2" stroke-dasharray="15" class="spin" style="transform-origin: 688px 381px;" />
<text x="700" y="386" class="" font-size="11" font-weight="700" text-anchor="start" fill="#38bdf8" >RUNNING</text>
<text x="674" y="415" class="text-muted" font-size="12" font-weight="normal" text-anchor="start"  >Last run: 10 mins ago</text>
<rect x="1010" y="270" width="340" height="160" class="card" fill="rgba(9, 25, 48, 0.68)" stroke="rgba(56, 189, 248, 0.15)" rx="16" filter="url(#shadow-sm)" />
<text x="1034" y="306" class="text-primary" font-size="16" font-weight="800" text-anchor="start"  >Churn Prediction</text>
<text x="1034" y="330" class="text-muted" font-size="14" font-weight="normal" text-anchor="start"  >Predictive classifier for user retention.</text>
<line x1="1034" y1="355" x2="1326" y2="355" stroke="rgba(56, 189, 248, 0.1)" stroke-width="1"  />
<rect x="1034" y="369" width="88" height="24" class="" fill="rgba(52, 211, 153, 0.15)" stroke="#a78bfa" rx="12" stroke-opacity="0.3" />
<svg x="1040" y="373" width="16" height="16" viewBox="0 0 24 24"><path d="M5 13l4 4L19 7" fill="none" stroke="#a78bfa" stroke-width="2" stroke-linecap="round" stroke-linejoin="round"/></svg>
<text x="1060" y="386" class="" font-size="11" font-weight="700" text-anchor="start" fill="#a78bfa" >SUCCESS</text>
<text x="1034" y="415" class="text-muted" font-size="12" font-weight="normal" text-anchor="start"  >Last run: 3 days ago</text>
<rect x="290" y="450" width="340" height="160" class="card" fill="rgba(9, 25, 48, 0.68)" stroke="rgba(56, 189, 248, 0.15)" rx="16" filter="url(#shadow-sm)" />
<text x="314" y="486" class="text-primary" font-size="16" font-weight="800" text-anchor="start"  >Image Classifier</text>
<text x="314" y="510" class="text-muted" font-size="14" font-weight="normal" text-anchor="start"  >Multi-class convolutional network.</text>
<line x1="314" y1="535" x2="606" y2="535" stroke="rgba(56, 189, 248, 0.1)" stroke-width="1"  />
<rect x="314" y="549" width="104" height="24" class="" fill="rgba(148, 163, 184, 0.15)" stroke="#94a3b8" rx="12" stroke-opacity="0.3" />
<svg x="320" y="553" width="16" height="16" viewBox="0 0 24 24"><path d="M18.364 18.364A9 9 0 005.636 5.636m12.728 12.728A9 9 0 015.636 5.636m12.728 12.728L5.636 5.636" fill="none" stroke="#94a3b8" stroke-width="2" stroke-linecap="round" stroke-linejoin="round"/></svg>
<text x="340" y="566" class="" font-size="11" font-weight="700" text-anchor="start" fill="#94a3b8" >CANCELLED</text>
<text x="314" y="595" class="text-muted" font-size="12" font-weight="normal" text-anchor="start"  >Last run: 1 week ago</text>
</g>
</svg>