<svg xmlns="http://www.w3.org/2000/svg" viewBox="0 0 1280 800" width="1280" height="800">

        <defs>
            <radialGradient id="bg-glow" cx="85%" cy="15%" r="65%">
                <stop offset="0%" stop-color="#38bdf8" stop-opacity="0.25"/>
                <stop offset="100%" stop-color="#061426" stop-opacity="1"/>
            </radialGradient>
            <radialGradient id="bg-glow2" cx="15%" cy="85%" r="65%">
                <stop offset="0%" stop-color="#2563eb" stop-opacity="0.2"/>
                <stop offset="100%" stop-color="#061426" stop-opacity="0"/>
            </radialGradient>
            <radialGradient id="bg-glow3" cx="50%" cy="50%" r="50%">
                <stop offset="0%" stop-color="#a78bfa" stop-opacity="0.1"/>
                <stop offset="100%" stop-color="#061426" stop-opacity="0"/>
            </radialGradient>
            
            <linearGradient id="primary-grad" x1="0%" y1="0%" x2="100%" y2="100%">
                <stop offset="0%" stop-color="#38bdf8"/>
                <stop offset="100%" stop-color="#60a5fa"/>
            </linearGradient>
            
            <linearGradient id="text-grad" x1="0%" y1="0%" x2="100%" y2="0%">
                <stop offset="0%" stop-color="#e0f2fe"/>
                <stop offset="100%" stop-color="#bfdbfe"/>
            </linearGradient>
            
            <linearGradient id="sidebar-grad" x1="0%" y1="0%" x2="100%" y2="0%">
                <stop offset="0%" stop-color="rgba(7, 19, 39, 0.86)"/>
                <stop offset="100%" stop-color="rgba(7, 19, 39, 0.42)"/>
            </linearGradient>
            
            <filter id="shadow" x="-20%" y="-20%" width="140%" height="140%">
                <feDropShadow dx="0" dy="12" stdDeviation="24" flood-color="#000000" flood-opacity="0.7"/>
            </filter>
            <filter id="shadow-sm" x="-20%" y="-20%" width="140%" height="140%">
                <feDropShadow dx="0" dy="4" stdDeviation="8" flood-color="#000000" flood-opacity="0.5"/>
            </filter>
            
            <filter id="glow-primary" x="-20%" y="-20%" width="140%" height="140%">
                <feDropShadow dx="0" dy="6" stdDeviation="12" flood-color="#60a5fa" flood-opacity="0.5"/>
            </filter>
            <filter id="glow-success" x="-20%" y="-20%" width="140%" height="140%">
                <feDropShadow dx="0" dy="4" stdDeviation="8" flood-color="#a78bfa" flood-opacity="0.5"/>
            </filter>
            
            <filter id="blur" x="-20%" y="-20%" width="140%" height="140%">
                <feGaussianBlur stdDeviation="16"/>
            </filter>
        </defs>
        <style><![CDATA[

        @import url('https://fonts.googleapis.com/css2?family=Inter:wght@300;400;500;600;700;800&family=JetBrains+Mono:wght@400;500&display=swap');
        * { font-family: 'Inter', sans-serif; }
        .mono { font-family: 'JetBrains Mono', monospace; }
        
        .bg-base { fill: #061426; }
        .card { fill: rgba(9, 25, 48, 0.68); stroke: rgba(56, 189, 248, 0.22); stroke-width: 1; backdrop-filter: blur(12px); }
        .card:hover { stroke: rgba(96, 165, 250, 0.58); transition: stroke 0.3s ease; }
        .glass { fill: url(#sidebar-grad); }
        
        .text-primary { fill: #f0f9ff; }
        .text-muted { fill: #94a3b8; }
        .gradient-text { fill: url(#text-grad); }
        
        .pulse { animation: pulse 2.5s infinite ease-in-out; }
        @keyframes pulse { 0% { opacity: 1; } 50% { opacity: 0.5; } 100% { opacity: 1; } }
        .spin { animation: spin 2s linear infinite; transform-origin: center; }
        @keyframes spin { 100% { transform: rotate(360deg); } }
        .fade-in { animation: fadeIn 0.8s cubic-bezier(0.16, 1, 0.3, 1) forwards; opacity: 0; }
        .delay-1 { animation-delay: 0.1s; }
        .delay-2 { animation-delay: 0.2s; }
        .delay-3 { animation-delay: 0.3s; }
        @keyframes fadeIn { to { opacity: 1; transform: translateY(0); } from { opacity: 0; transform: translateY(20px); } }
        
        .btn-primary { fill: url(#primary-grad); filter: url(#glow-primary); transition: filter 0.3s; cursor: pointer; }
        .btn-primary:hover { filter: brightness(1.1) url(#glow-primary); }
        .btn-primary-text { fill: #ffffff; }
        
        .btn-secondary { fill: rgba(56, 189, 248, 0.05); stroke: rgba(56, 189, 248, 0.2); cursor: pointer; transition: all 0.2s; }
        .btn-secondary:hover { fill: rgba(56, 189, 248, 0.1); stroke: rgba(96, 165, 250, 0.58); }
        .btn-secondary-text { fill: #e0f2fe; }
        
        .btn-danger { fill: rgba(244, 63, 94, 0.1); stroke: rgba(244, 63, 94, 0.3); }
        .btn-danger-text { fill: #fca5a5; }
        
]]></style>
<rect x="0" y="0" width="1280" height="800" class="bg-base"   rx="0"  />
<rect x="0" y="0" width="1280" height="800" class="" fill="url(#bg-glow)"  rx="0"  />
<rect x="0" y="0" width="1280" height="800" class="" fill="url(#bg-glow2)"  rx="0"  />
<rect x="0" y="0" width="1280" height="800" class="" fill="url(#bg-glow3)"  rx="0"  />
<rect x="0" y="0" width="260" height="800" class="glass"   rx="0" filter="url(#shadow)" />
<line x1="260" y1="0" x2="260" y2="800" stroke="rgba(56, 189, 248, 0.1)" stroke-width="1"  />
<svg x="24" y="32" width="32" height="32" viewBox="0 0 24 24"><path d="M12 2l3 7 7 3-7 3-3 7-3-7-7-3 7-3z" fill="url(#primary-grad)" stroke="none"/><circle cx="18" cy="6" r="1.5" fill="#38bdf8"/><circle cx="6" cy="18" r="1" fill="#60a5fa"/></svg>
<text x="68" y="54" class="gradient-text" font-size="20" font-weight="800" text-anchor="start"  >Future</text>
<svg x="36" y="108" width="20" height="20" viewBox="0 0 24 24"><path d="M3 9l9-7 9 7v11a2 2 0 0 1-2 2H5a2 2 0 0 1-2-2z" fill="none" stroke="#94a3b8" stroke-width="2" stroke-linecap="round" stroke-linejoin="round"/></svg>
<text x="68" y="123" class="text-muted" font-size="15" font-weight="600" text-anchor="start"  >Projects</text>
<line x1="24" y1="180" x2="236" y2="180" stroke="rgba(56, 189, 248, 0.1)" stroke-width="1"  />
<text x="36" y="210" class="text-muted" font-size="12" font-weight="800" text-anchor="start"  >FRAUD DETECTION</text>
<svg x="36" y="230" width="18" height="18" viewBox="0 0 24 24"><path d="M4 6h16M4 12h16M4 18h7" fill="none" stroke="#94a3b8" stroke-width="2" stroke-linecap="round" stroke-linejoin="round"/></svg>
<text x="68" y="244" class="text-muted" font-size="14" font-weight="500" text-anchor="start"  >Overview</text>
<rect x="16" y="267" width="228" height="36" class="" fill="rgba(56, 189, 248, 0.15)"  rx="8"  />
<rect x="16" y="273" width="4" height="24" class="" fill="#60a5fa"  rx="2" filter="url(#glow-primary)" />
<svg x="36" y="275" width="18" height="18" viewBox="0 0 24 24"><path d="M12 6V4m0 2a2 2 0 100 4m0-4a2 2 0 110 4m-6 8a2 2 0 100-4m0 4a2 2 0 110-4m0 4v2m0-6V4m6 6v10m6-2a2 2 0 100-4m0 4a2 2 0 110-4m0 4v2m0-6V4" fill="none" stroke="#f0f9ff" stroke-width="2" stroke-linecap="round" stroke-linejoin="round"/></svg>
<text x="68" y="289" class="text-primary" font-size="14" font-weight="600" text-anchor="start"  >Configuration</text>
<svg x="36" y="320" width="18" height="18" viewBox="0 0 24 24"><path d="M12 8v4l3 3m6-3a9 9 0 11-18 0 9 9 0 0118 0z" fill="none" stroke="#94a3b8" stroke-width="2" stroke-linecap="round" stroke-linejoin="round"/></svg>
<text x="68" y="334" class="text-muted" font-size="14" font-weight="500" text-anchor="start"  >Training History</text>
<svg x="36" y="365" width="18" height="18" viewBox="0 0 24 24"><path d="M20 7l-8-4-8 4m16 0l-8 4m8-4v10l-8 4m0-10L4 7m8 4v10M4 7v10l8 4" fill="none" stroke="#94a3b8" stroke-width="2" stroke-linecap="round" stroke-linejoin="round"/></svg>
<text x="68" y="379" class="text-muted" font-size="14" font-weight="500" text-anchor="start"  >Artifacts</text>
<line x1="24" y1="716" x2="236" y2="716" stroke="rgba(56, 189, 248, 0.1)" stroke-width="1"  />
<rect x="24" y="732" width="40" height="40" class="" fill="url(#primary-grad)"  rx="20"  />
<text x="44" y="757" class="text-primary" font-size="15" font-weight="700" text-anchor="middle" fill="#ffffff" >EN</text>
<text x="76" y="750" class="text-primary" font-size="13" font-weight="700" text-anchor="start"  >engineer@co.com</text>
<text x="76" y="768" class="text-muted" font-size="12" font-weight="normal" text-anchor="start"  >AI Engineer</text>
<rect x="260" y="0" width="1020" height="72" class="" fill="rgba(7, 19, 39, 0.56)"  rx="0" backdrop-filter="blur(12px)" />
<line x1="260" y1="72" x2="1280" y2="72" stroke="rgba(56, 189, 248, 0.1)" stroke-width="1"  />
<text x="290" y="42" class="text-muted" font-size="14" font-weight="600" text-anchor="start"  >Projects &gt; Fraud Detection &gt; Edit Config</text>
<rect x="980" y="22" width="128" height="28" class="" fill="rgba(52, 211, 153, 0.1)" stroke="rgba(52, 211, 153, 0.3)" rx="14"  />
<circle cx="996" cy="36" r="4" class="pulse" fill="#a78bfa"  filter="url(#glow-success)" />
<text x="1010" y="40" class="text-primary" font-size="11" font-weight="800" text-anchor="start" fill="#a78bfa" >CONNECTED</text>
<svg x="1140" y="24" width="24" height="24" viewBox="0 0 24 24"><path d="M18 8A6 6 0 0 0 6 8c0 7-3 9-3 9h18s-3-2-3-9 M13.73 21a2 2 0 0 1-3.46 0" fill="none" stroke="#94a3b8" stroke-width="2" stroke-linecap="round" stroke-linejoin="round"/></svg>
<circle cx="1158" cy="26" r="4" class="" fill="#f43f5e"   />
<text x="290" y="130" class="gradient-text fade-in" font-size="32" font-weight="800" text-anchor="start"  >Edit Configuration</text>
<text x="290" y="155" class="text-muted fade-in delay-1" font-size="16" font-weight="normal" text-anchor="start"  >Adjust the hyperparameters for the next training run.</text>
<g class="fade-in delay-2">
<rect x="290" y="190" width="700" height="520" class="" fill="rgba(9, 25, 48, 0.68)" stroke="rgba(56, 189, 248, 0.15)" rx="16" filter="url(#shadow)" />
<text x="322" y="226" class="text-primary" font-size="18" font-weight="800" text-anchor="start"  >Hyperparameters</text>
<line x1="290" y1="246" x2="990" y2="246" stroke="rgba(56, 189, 248, 0.1)" stroke-width="1"  />
<g class="">
<text x="322" y="272" class="text-muted" font-size="13" font-weight="600" text-anchor="start"  >Batch Size</text>
<rect x="322" y="280" width="302.0" height="44" class="" fill="rgba(7, 19, 39, 0.76)" stroke="rgba(56, 189, 248, 0.2)" rx="8" filter="url(#shadow-sm)" />
<text x="338" y="307.0" class="text-primary" font-size="14" font-weight="normal" text-anchor="start"  >64</text>
</g>
<g class="">
<text x="656.0" y="272" class="text-muted" font-size="13" font-weight="600" text-anchor="start"  >Learning Rate</text>
<rect x="656.0" y="280" width="302.0" height="44" class="" fill="rgba(7, 19, 39, 0.76)" stroke="rgba(56, 189, 248, 0.2)" rx="8" filter="url(#shadow-sm)" />
<text x="672.0" y="307.0" class="text-primary" font-size="14" font-weight="normal" text-anchor="start"  >0.001</text>
</g>
<g class="">
<text x="322" y="352" class="text-muted" font-size="13" font-weight="600" text-anchor="start"  >Epochs</text>
<rect x="322" y="360" width="302.0" height="44" class="" fill="rgba(7, 19, 39, 0.76)" stroke="rgba(56, 189, 248, 0.2)" rx="8" filter="url(#shadow-sm)" />
<text x="338" y="387.0" class="text-primary" font-size="14" font-weight="normal" text-anchor="start"  >50</text>
</g>
<g class="">
<text x="656.0" y="352" class="text-muted" font-size="13" font-weight="600" text-anchor="start"  >Dropout</text>
<rect x="656.0" y="360" width="302.0" height="44" class="" fill="rgba(7, 19, 39, 0.76)" stroke="rgba(56, 189, 248, 0.2)" rx="8" filter="url(#shadow-sm)" />
<text x="672.0" y="387.0" class="text-primary" font-size="14" font-weight="normal" text-anchor="start"  >0.2</text>
</g>
<g class="">
<text x="322" y="432" class="text-muted" font-size="13" font-weight="600" text-anchor="start"  >Optimizer Algorithm</text>
<rect x="322" y="440" width="636" height="44" class="" fill="rgba(7, 19, 39, 0.76)" stroke="rgba(56, 189, 248, 0.2)" rx="8" filter="url(#shadow-sm)" />
<text x="338" y="467.0" class="text-primary" font-size="14" font-weight="normal" text-anchor="start"  >adamw</text>
</g>
<rect x="322" y="520" width="636" height="80" class="" fill="rgba(52, 211, 153, 0.1)" stroke="rgba(52, 211, 153, 0.3)" rx="8"  />
<circle cx="346" cy="548" r="8" class="" fill="#a78bfa"  filter="url(#glow-success)" />
<path d="M52 358l3 3 5-5" fill="none" stroke="#061426" stroke-width="2" stroke-linecap="round" stroke-linejoin="round"/>
<text x="366" y="553" class="text-primary" font-size="15" font-weight="800" text-anchor="start" fill="#a78bfa" >Validation Passed</text>
<text x="366" y="575" class="text-primary" font-size="13" font-weight="normal" text-anchor="start" fill="#a78bfa" >All parameter types match the expected schema.</text>
<line x1="290" y1="640" x2="990" y2="640" stroke="rgba(56, 189, 248, 0.1)" stroke-width="1"  />
<g class="">
<rect x="322" y="655" width="140" height="44" class="btn-secondary"   rx="8"  />
<text x="392.0" y="682.0" class="btn-secondary-text" font-size="14" font-weight="600" text-anchor="middle"  >Discard</text>
</g>
<g class="">
<rect x="758" y="655" width="200" height="44" class="btn-primary"   rx="8"  />
<text x="858.0" y="682.0" class="btn-primary-text" font-size="14" font-weight="600" text-anchor="middle"  >Validate &amp; Save</text>
</g>
</g>
</svg>