<svg xmlns="http://www.w3.org/2000/svg" viewBox="0 0 1280 800" width="1280" height="800">

        <defs>
            <radialGradient id="bg-glow" cx="85%" cy="15%" r="65%">
                <stop offset="0%" stop-color="#38bdf8" stop-opacity="0.25"/>
                <stop offset="100%" stop-color="#061426" stop-opacity="1"/>
            </radialGradient>
            <radialGradient id="bg-glow2" cx="15%" cy="85%" r="65%">
                <stop offset="0%" stop-color="#2563eb" stop-opacity="0.2"/>
                <stop offset="100%" stop-color="#061426" stop-opacity="0"/>
            </radialGradient>
            <radialGradient id="bg-glow3" cx="50%" cy="50%" r="50%">
                <stop offset="0%" stop-color="#a78bfa" stop-opacity="0.1"/>
                <stop offset="100%" stop-color="#061426" stop-opacity="0"/>
            </radialGradient>
            
            <linearGradient id="primary-grad" x1="0%" y1="0%" x2="100%" y2="100%">
                <stop offset="0%" stop-color="#38bdf8"/>
                <stop offset="100%" stop-color="#60a5fa"/>
            </linearGradient>
            
            <linearGradient id="text-grad" x1="0%" y1="0%" x2="100%" y2="0%">
                <stop offset="0%" stop-color="#e0f2fe"/>
                <stop offset="100%" stop-color="#bfdbfe"/>
            </linearGradient>
            
            <linearGradient id="sidebar-grad" x1="0%" y1="0%" x2="100%" y2="0%">
                <stop offset="0%" stop-color="rgba(7, 19, 39, 0.86)"/>
                <stop offset="100%" stop-color="rgba(7, 19, 39, 0.42)"/>
            </linearGradient>
            
            <filter id="shadow" x="-20%" y="-20%" width="140%" height="140%">
                <feDropShadow dx="0" dy="12" stdDeviation="24" flood-color="#000000" flood-opacity="0.7"/>
            </filter>
            <filter id="shadow-sm" x="-20%" y="-20%" width="140%" height="140%">
                <feDropShadow dx="0" dy="4" stdDeviation="8" flood-color="#000000" flood-opacity="0.5"/>
            </filter>
            
            <filter id="glow-primary" x="-20%" y="-20%" width="140%" height="140%">
                <feDropShadow dx="0" dy="6" stdDeviation="12" flood-color="#60a5fa" flood-opacity="0.5"/>
            </filter>
            <filter id="glow-success" x="-20%" y="-20%" width="140%" height="140%">
                <feDropShadow dx="0" dy="4" stdDeviation="8" flood-color="#a78bfa" flood-opacity="0.5"/>
            </filter>
            
            <filter id="blur" x="-20%" y="-20%" width="140%" height="140%">
                <feGaussianBlur stdDeviation="16"/>
            </filter>
        </defs>
        <style><![CDATA[

        @import url('https://fonts.googleapis.com/css2?family=Inter:wght@300;400;500;600;700;800&family=JetBrains+Mono:wght@400;500&display=swap');
        * { font-family: 'Inter', sans-serif; }
        .mono { font-family: 'JetBrains Mono', monospace; }
        
        .bg-base { fill: #061426; }
        .card { fill: rgba(9, 25, 48, 0.68); stroke: rgba(56, 189, 248, 0.22); stroke-width: 1; backdrop-filter: blur(12px); }
        .card:hover { stroke: rgba(96, 165, 250, 0.58); transition: stroke 0.3s ease; }
        .glass { fill: url(#sidebar-grad); }
        
        .text-primary { fill: #f0f9ff; }
        .text-muted { fill: #94a3b8; }
        .gradient-text { fill: url(#text-grad); }
        
        .pulse { animation: pulse 2.5s infinite ease-in-out; }
        @keyframes pulse { 0% { opacity: 1; } 50% { opacity: 0.5; } 100% { opacity: 1; } }
        .spin { animation: spin 2s linear infinite; transform-origin: center; }
        @keyframes spin { 100% { transform: rotate(360deg); } }
        .fade-in { animation: fadeIn 0.8s cubic-bezier(0.16, 1, 0.3, 1) forwards; opacity: 0; }
        .delay-1 { animation-delay: 0.1s; }
        .delay-2 { animation-delay: 0.2s; }
        .delay-3 { animation-delay: 0.3s; }
        @keyframes fadeIn { to { opacity: 1; transform: translateY(0); } from { opacity: 0; transform: translateY(20px); } }
        
        .btn-primary { fill: url(#primary-grad); filter: url(#glow-primary); transition: filter 0.3s; cursor: pointer; }
        .btn-primary:hover { filter: brightness(1.1) url(#glow-primary); }
        .btn-primary-text { fill: #ffffff; }
        
        .btn-secondary { fill: rgba(56, 189, 248, 0.05); stroke: rgba(56, 189, 248, 0.2); cursor: pointer; transition: all 0.2s; }
        .btn-secondary:hover { fill: rgba(56, 189, 248, 0.1); stroke: rgba(96, 165, 250, 0.58); }
        .btn-secondary-text { fill: #e0f2fe; }
        
        .btn-danger { fill: rgba(244, 63, 94, 0.1); stroke: rgba(244, 63, 94, 0.3); }
        .btn-danger-text { fill: #fca5a5; }
        
]]></style>
<rect x="0" y="0" width="1280" height="800" class="bg-base"   rx="0"  />
<rect x="0" y="0" width="1280" height="800" class="" fill="url(#bg-glow)"  rx="0"  />
<rect x="0" y="0" width="1280" height="800" class="" fill="url(#bg-glow2)"  rx="0"  />
<rect x="0" y="0" width="1280" height="800" class="" fill="url(#bg-glow3)"  rx="0"  />
<rect x="0" y="0" width="260" height="800" class="glass"   rx="0" filter="url(#shadow)" />
<line x1="260" y1="0" x2="260" y2="800" stroke="rgba(56, 189, 248, 0.1)" stroke-width="1"  />
<svg x="24" y="32" width="32" height="32" viewBox="0 0 24 24"><path d="M12 2l3 7 7 3-7 3-3 7-3-7-7-3 7-3z" fill="url(#primary-grad)" stroke="none"/><circle cx="18" cy="6" r="1.5" fill="#38bdf8"/><circle cx="6" cy="18" r="1" fill="#60a5fa"/></svg>
<text x="68" y="54" class="gradient-text" font-size="20" font-weight="800" text-anchor="start"  >Future</text>
<svg x="36" y="108" width="20" height="20" viewBox="0 0 24 24"><path d="M3 9l9-7 9 7v11a2 2 0 0 1-2 2H5a2 2 0 0 1-2-2z" fill="none" stroke="#94a3b8" stroke-width="2" stroke-linecap="round" stroke-linejoin="round"/></svg>
<text x="68" y="123" class="text-muted" font-size="15" font-weight="600" text-anchor="start"  >Projects</text>
<line x1="24" y1="716" x2="236" y2="716" stroke="rgba(56, 189, 248, 0.1)" stroke-width="1"  />
<rect x="24" y="732" width="40" height="40" class="" fill="url(#primary-grad)"  rx="20"  />
<text x="44" y="757" class="text-primary" font-size="15" font-weight="700" text-anchor="middle" fill="#ffffff" >EN</text>
<text x="76" y="750" class="text-primary" font-size="13" font-weight="700" text-anchor="start"  >engineer@co.com</text>
<text x="76" y="768" class="text-muted" font-size="12" font-weight="normal" text-anchor="start"  >AI Engineer</text>
<rect x="260" y="0" width="1020" height="72" class="" fill="rgba(7, 19, 39, 0.56)"  rx="0" backdrop-filter="blur(12px)" />
<line x1="260" y1="72" x2="1280" y2="72" stroke="rgba(56, 189, 248, 0.1)" stroke-width="1"  />
<text x="290" y="42" class="text-muted" font-size="14" font-weight="600" text-anchor="start"  >Notifications</text>
<rect x="980" y="22" width="128" height="28" class="" fill="rgba(52, 211, 153, 0.1)" stroke="rgba(52, 211, 153, 0.3)" rx="14"  />
<circle cx="996" cy="36" r="4" class="pulse" fill="#a78bfa"  filter="url(#glow-success)" />
<text x="1010" y="40" class="text-primary" font-size="11" font-weight="800" text-anchor="start" fill="#a78bfa" >CONNECTED</text>
<svg x="1140" y="24" width="24" height="24" viewBox="0 0 24 24"><path d="M18 8A6 6 0 0 0 6 8c0 7-3 9-3 9h18s-3-2-3-9 M13.73 21a2 2 0 0 1-3.46 0" fill="none" stroke="#94a3b8" stroke-width="2" stroke-linecap="round" stroke-linejoin="round"/></svg>
<circle cx="1158" cy="26" r="4" class="" fill="#f43f5e"   />
<text x="290" y="130" class="gradient-text fade-in" font-size="32" font-weight="800" text-anchor="start"  >Inbox &amp; Alerts</text>
<g class="fade-in delay-1">
<rect x="290" y="170" width="300" height="44" class="" fill="rgba(56, 189, 248, 0.05)" stroke="rgba(56, 189, 248, 0.2)" rx="8"  />
<rect x="294" y="174" width="100" height="36" class="" fill="rgba(56, 189, 248, 0.15)"  rx="6" filter="url(#shadow-sm)" />
<text x="344" y="197" class="text-primary" font-size="14" font-weight="700" text-anchor="middle"  >All</text>
<text x="444" y="197" class="text-muted" font-size="14" font-weight="600" text-anchor="middle"  >Unread (1)</text>
<text x="544" y="197" class="text-muted" font-size="14" font-weight="600" text-anchor="middle"  >Read (2)</text>
<g class="">
<rect x="1060" y="170" width="180" height="44" class="btn-secondary"   rx="8"  />
<text x="1150.0" y="197.0" class="btn-secondary-text" font-size="14" font-weight="600" text-anchor="middle"  >Mark All Read</text>
</g>
</g>
<g class="fade-in delay-2">
<rect x="290" y="240" width="950" height="110" class="" fill="rgba(56, 189, 248, 0.15)" stroke="#38bdf8" rx="16" filter="url(#shadow-sm)" />
<circle cx="314" cy="295" r="6" class="" fill="#60a5fa"  filter="url(#glow-primary)" />
<rect x="340" y="259" width="80" height="24" class="" fill="rgba(244, 63, 94, 0.15)" stroke="#f43f5e" rx="12" stroke-opacity="0.3" />
<svg x="346" y="263" width="16" height="16" viewBox="0 0 24 24"><path d="M6 18L18 6M6 6l12 12" fill="none" stroke="#f43f5e" stroke-width="2" stroke-linecap="round" stroke-linejoin="round"/></svg>
<text x="366" y="276" class="" font-size="11" font-weight="700" text-anchor="start" fill="#f43f5e" >FAILED</text>
<text x="450" y="275" class="text-primary" font-size="16" font-weight="800" text-anchor="start"  >Job #1003 Failed - Fraud Detection</text>
<text x="340" y="310" class="text-muted" font-size="14" font-weight="500" text-anchor="start"  >Error: CUDA out of memory. Epoch 42 runtime terminated.</text>
<text x="1110" y="275" class="text-muted" font-size="13" font-weight="600" text-anchor="middle"  >3 hours ago</text>
<g class="">
<rect x="1100" y="295" width="120" height="36" class="btn-secondary"   rx="8"  />
<text x="1160.0" y="318.0" class="btn-secondary-text" font-size="14" font-weight="600" text-anchor="middle"  >View Details</text>
</g>
</g>
<g class="fade-in delay-2">
<rect x="290" y="370" width="950" height="110" class="" fill="rgba(9, 25, 48, 0.68)" stroke="rgba(56, 189, 248, 0.15)" rx="16" filter="url(#shadow-sm)" />
<rect x="340" y="389" width="88" height="24" class="" fill="rgba(52, 211, 153, 0.15)" stroke="#a78bfa" rx="12" stroke-opacity="0.3" />
<svg x="346" y="393" width="16" height="16" viewBox="0 0 24 24"><path d="M5 13l4 4L19 7" fill="none" stroke="#a78bfa" stroke-width="2" stroke-linecap="round" stroke-linejoin="round"/></svg>
<text x="366" y="406" class="" font-size="11" font-weight="700" text-anchor="start" fill="#a78bfa" >SUCCESS</text>
<text x="450" y="405" class="text-primary" font-size="16" font-weight="600" text-anchor="start"  >Job #1004 Succeeded - Fraud Detection</text>
<text x="340" y="440" class="text-muted" font-size="14" font-weight="500" text-anchor="start"  >Weights checkpoint saved. Model v1.2 version successfully created.</text>
<text x="1110" y="405" class="text-muted" font-size="13" font-weight="600" text-anchor="middle"  >5 hours ago</text>
<g class="">
<rect x="1100" y="425" width="120" height="36" class="btn-secondary"   rx="8"  />
<text x="1160.0" y="448.0" class="btn-secondary-text" font-size="14" font-weight="600" text-anchor="middle"  >View Details</text>
</g>
</g>
</svg>